<?xml version="1.0" standalone="no"?>
<svg version="1.1" id="Layer_1" xmlns="http://www.w3.org/2000/svg" xmlns:xlink="http://www.w3.org/1999/xlink" x="0px" y="0px" width="595.28px" height="595.28px" viewBox="0 0 595.28 595.28" enable-background="new 0 0 595.28 595.28" xml:space="preserve">
<path id="color_x5F_7" fill="#ED1C24" d="M275.4,219.68l-9.923-0.899c0,0-14.259-3.484-18.23,2.359
	c-1.716,2.525-6.762,8.94-11.938,15.413c-0.222-3.036,0.193-5.583,0.688-7.583c4.096-16.558,21.499-18.576,27.165-22.823
	c1.532-1.148,2.814-2.375,3.897-3.633c-0.526,6.06-0.021,10.918,6.152,11.537l2.728,0.274L275.4,219.68z M265.442,218.83
	l0.045,0.004l-0.01-0.053L265.442,218.83z M250.813,239.448c0,0-4.141,6.887-9.101,12.813c1.945,2.654,4.424,5.462,7.586,8.417
	c2.091,1.954,3.986,3.448,5.709,4.595c1.285-10.494-2.089-17.603-2.183-28.662L250.813,239.448z M322.326,236.049
	c-0.706-10.668-7.56-16.628-13.768-20.866c-2.196,3-4.54,6.202-6.832,9.336c0.073,0.344,0.052,0.718-0.1,1.13
	c-3.893,10.604-15.774,36.798-16.105,39.429c-0.167,1.339,0.075,3.16,0.568,5.217c5.653-0.245,11.847-1.646,17.578-5.362
	C321.588,253.313,322.738,242.277,322.326,236.049z M267.849,196.007c0,0,1.385-3.33,4.614-5.215
	c0.472-0.275,0.981-0.517,1.534-0.716c0.079-0.029,0.153-0.063,0.234-0.09c2.492-0.818,5.941-0.979,8.53-0.961
	c-0.77,1.884-1.331,4.304-0.118,5.929c2.245,3.006,2.113,4.896,2,6.023c-0.063,0.61-0.047,1.37-0.021,1.944
	c0.015,0.311,0.031,0.56,0.043,0.704c0.006,0.082,0.011,0.142,0.011,0.142s0.02-0.057,0.048-0.136
	c0.29-0.806,1.958-5.266,3.119-4.432c2.113,1.517,1.072,9.799,1.072,9.799c-0.164,0.263-0.341,0.517-0.524,0.765l-0.981,9.778
	l1.266,1.342c0,0,0.027,0,0.068,0l4.953-6.995l4.443-6.771c-2.109-2.696-3.371-5.457-4.102-8.013
	c0.899-4.836,0.211-8.493,0.211-8.493c-0.216-0.635-0.492-1.259-0.813-1.867c0.013-0.074,0.026-0.144,0.038-0.208l0.21-0.019
	c0,0-0.067-0.039-0.185-0.106c0.052-0.254,0.089-0.397,0.089-0.397l-0.2,0.333c-0.075-0.043-0.162-0.092-0.264-0.149
	c-2.637-4.452-8.17-7.769-16.307-6.435c-0.002,0,0,0.001-0.003,0.001c-0.522-0.004-0.989,0.052-1.381,0.187
	c-8.596,2.952-7.991,11.331-7.676,13.521C267.807,195.812,267.849,196.007,267.849,196.007z M285.543,221.905l-5.486,0.474h-0.001
	l-3.215,0.278l-1.682-0.573l-6.363-2.167l-0.344,0.101l0.952,8.493l7.29-4.806l0.179-0.117l0.138,0.149l2.67,2.891v0l3.01,3.258
	l0.201,0.218l0.433-1.17l1.625-4.4l0.903-2.446L285.543,221.905z"></path>
<path id="color_x5F_6" fill="#8AD5EF" d="M152.565,197.43v-8.51c0-0.527,0.427-0.955,0.954-0.955c0.528,0,0.954,0.427,0.954,0.955
	v8.51c0,0.526-0.426,0.952-0.954,0.952C152.992,198.382,152.565,197.957,152.565,197.43z M153.52,223.901
	c0.528,0,0.954-0.428,0.954-0.954v-8.508c0-0.528-0.426-0.955-0.954-0.955c-0.527,0-0.954,0.426-0.954,0.955v8.508
	C152.565,223.473,152.992,223.901,153.52,223.901z M136.507,206.888h8.508c0.528,0,0.956-0.427,0.956-0.956
	c0-0.527-0.428-0.954-0.956-0.954h-8.508c-0.527,0-0.955,0.427-0.955,0.954C135.552,206.461,135.979,206.888,136.507,206.888z
	 M161.069,205.933c0,0.528,0.428,0.956,0.955,0.956h8.508c0.527,0,0.955-0.427,0.955-0.956c0-0.527-0.428-0.954-0.955-0.954h-8.508
	C161.497,204.979,161.069,205.406,161.069,205.933z M146.831,200.595c0.373,0.372,0.979,0.372,1.352,0
	c0.371-0.374,0.371-0.977-0.002-1.351l-6.016-6.016c-0.373-0.374-0.978-0.374-1.35,0c-0.373,0.373-0.373,0.977,0,1.35
	L146.831,200.595z M164.874,218.639c0.374,0.372,0.979,0.372,1.35,0c0.373-0.374,0.373-0.977,0-1.352l-6.016-6.016
	c-0.373-0.373-0.977-0.373-1.35,0c-0.373,0.373-0.373,0.977,0,1.35L164.874,218.639z M146.831,211.271l-6.016,6.016
	c-0.373,0.375-0.373,0.978,0,1.352c0.372,0.372,0.977,0.372,1.35,0l6.016-6.017c0.373-0.373,0.373-0.977,0-1.35
	C147.81,210.899,147.204,210.899,146.831,211.271z M160.208,200.595l6.016-6.017c0.373-0.373,0.373-0.977,0-1.35
	c-0.371-0.374-0.976-0.374-1.35,0l-6.016,6.016c-0.373,0.374-0.373,0.977,0,1.351C159.231,200.967,159.835,200.967,160.208,200.595z
	 M401.796,198.382c0.528,0,0.954-0.426,0.954-0.952v-8.51c0-0.527-0.426-0.955-0.954-0.955c-0.527,0-0.954,0.427-0.954,0.955v8.51
	C400.842,197.957,401.269,198.382,401.796,198.382z M401.796,223.901c0.528,0,0.954-0.428,0.954-0.954v-8.508
	c0-0.528-0.426-0.955-0.954-0.955c-0.527,0-0.954,0.426-0.954,0.955v8.508C400.842,223.473,401.269,223.901,401.796,223.901z
	 M384.783,206.888h8.508c0.528,0,0.956-0.427,0.956-0.956c0-0.527-0.428-0.954-0.956-0.954h-8.508c-0.527,0-0.955,0.427-0.955,0.954
	C383.828,206.461,384.256,206.888,384.783,206.888z M409.346,205.933c0,0.528,0.428,0.956,0.955,0.956h8.508
	c0.527,0,0.955-0.427,0.955-0.956c0-0.527-0.428-0.954-0.955-0.954h-8.508C409.773,204.979,409.346,205.406,409.346,205.933z
	 M395.107,200.595c0.373,0.372,0.979,0.372,1.352,0c0.371-0.374,0.371-0.977-0.002-1.351l-6.016-6.016
	c-0.373-0.374-0.978-0.374-1.35,0c-0.373,0.373-0.373,0.977,0,1.35L395.107,200.595z M413.15,218.639
	c0.374,0.372,0.979,0.372,1.35,0c0.373-0.374,0.373-0.977,0-1.352l-6.016-6.016c-0.373-0.373-0.977-0.373-1.35,0
	c-0.373,0.373-0.373,0.977,0,1.35L413.15,218.639z M395.107,211.271l-6.016,6.016c-0.373,0.375-0.373,0.978,0,1.352
	c0.372,0.372,0.977,0.372,1.35,0l6.016-6.017c0.373-0.373,0.373-0.977,0-1.35C396.086,210.899,395.48,210.899,395.107,211.271z
	 M408.484,200.595l6.016-6.017c0.373-0.373,0.373-0.977,0-1.35c-0.371-0.374-0.976-0.374-1.35,0l-6.016,6.016
	c-0.373,0.374-0.373,0.977,0,1.351C407.508,200.967,408.111,200.967,408.484,200.595z"></path>
<path id="color_x5F_5" fill="#FFD2BB" d="M337.879,177.889c-1.479,0.548-2.99,0.726-4.412,0.587
	c-0.003,0.001-0.007,0.003-0.01,0.004c-1.817,4.065-6.29,9.84-6.29,9.84s-4.806,7.436-8.711,12.413l-12.182-6.012l-3.565,5.434
	c2.409-6.053,16.281-20.037,25.378-24.323c-0.533-0.614-0.966-1.318-1.26-2.11c-1.488-4.015,1.045-8.654,5.661-10.366
	c4.613-1.712,9.562,0.154,11.05,4.167C345.026,171.536,342.493,176.176,337.879,177.889z M288.915,208.999
	c-0.164,0.263-0.341,0.517-0.524,0.765l-0.981,9.778l1.266,1.342l-1.389-0.126l-7.029-0.637h-0.001l-4.827-0.438l-0.028-0.003
	l0.538-5.354l-2.728-0.274c-6.173-0.619-6.679-5.478-6.152-11.537c0.026-0.311,0.054-0.621,0.086-0.938l0.613-6.104
	c0.049,0.338,0.091,0.534,0.091,0.534s1.385-3.33,4.614-5.215c0.472-0.275,0.981-0.517,1.534-0.716
	c0.079-0.029,0.153-0.063,0.234-0.09c2.492-0.818,5.941-0.979,8.53-0.961c-0.77,1.884-1.331,4.304-0.118,5.929
	c2.245,3.006,2.113,4.896,2,6.023c-0.063,0.61-0.047,1.37-0.021,1.944c0.015,0.311,0.031,0.56,0.043,0.704
	c0.006,0.082,0.011,0.142,0.011,0.142s0.02-0.057,0.048-0.136c0.29-0.806,1.958-5.266,3.119-4.432
	C289.956,200.716,288.915,208.999,288.915,208.999z M271.03,197.19c-0.292-0.061-0.592,0.168-0.787,0.54
	c-0.015,0.028-0.028,0.055-0.042,0.085c-0.056,0.124-0.104,0.257-0.134,0.405c-0.131,0.658,0.093,1.255,0.489,1.342
	c0.403,0.082,0.832-0.382,0.964-1.036C271.653,197.875,271.429,197.274,271.03,197.19z M279.011,200.41
	c0.405,0.083,0.831-0.381,0.967-1.033c0.13-0.654-0.096-1.253-0.494-1.337c-0.403-0.085-0.834,0.376-0.962,1.029
	C278.393,199.728,278.615,200.325,279.011,200.41z M230.968,241.958c-3.182-4.467-8.649-10.229-11.24-12.917
	c2.357-2.217,3.365-5.42,2.287-8.301c-0.876-2.35-2.941-3.951-5.427-4.535c-1.757-0.413-3.722-0.321-5.631,0.392
	c-2.636,0.984-4.584,2.923-5.495,5.152c-0.684,1.672-0.785,3.506-0.143,5.226c0.156,0.419,0.359,0.81,0.588,1.181
	c1.519,2.471,4.517,3.822,7.722,3.57c0.175,10.564,5.144,20.707,10.338,25.166c0.169,0.145,0.369,0.251,0.59,0.329
	c0.124,0.043,0.257,0.075,0.394,0.097c3.178,0.522,9.764-4.345,8.4-10.943C233.125,245.283,232.224,243.721,230.968,241.958z"></path>
<path id="color_x5F_4" fill="#00CEC9" d="M380.072,359.973h44v10h-44V359.973z M380.072,388.973h44v-10h-44V388.973z
	 M380.072,407.973h44v-10h-44V407.973z M380.072,426.973h44v-10h-44V426.973z M432.072,397.973v10h44v-10H432.072z M432.072,426.973
	h44v-10h-44V426.973z M158.086,369.973h44v-10h-44V369.973z M158.086,388.973h44v-10h-44V388.973z M158.086,407.973h44v-10h-44
	V407.973z M158.086,426.973h44v-10h-44V426.973z M106.086,407.973h44v-10h-44V407.973z M106.086,426.973h44v-10h-44V426.973z"></path>
<path id="color_x5F_3" fill="#E84393" d="M283.296,336.908c0,0,0.215,1.111,1.256,3.252h-6.543
	c-0.146-1.282-0.287-2.572-0.422-3.865h5.305C283.026,336.501,283.161,336.706,283.296,336.908
	C283.297,336.909,283.296,336.909,283.296,336.908z M209.809,336.295c0.003-0.051,0.014-0.096,0.014-0.148
	c0.014-10.098-0.19-20.023-0.951-29.948c0.682-0.623,1.606-1.514,2.699-2.666c-1.819-14.453-3.559-28.944-5.035-43.563
	c-0.453,0.247-1.058,0.233-1.425-0.34c-3.995-6.125-7.165-12.89-11.489-18.902c-0.845-1.167,0.717-2.813,1.559-1.623
	c4.174,5.837,7.321,12.291,11.096,18.278c-1.818-18.304-3.251-36.831-4.079-55.633c-0.057-1.485,2.068-1.881,2.132-0.413
	c0.296,6.842,0.685,13.642,1.134,20.413c0.911-2.229,2.859-4.168,5.495-5.152c1.909-0.713,3.874-0.805,5.631-0.392
	c0.054-1.194,0.122-2.479,0.206-3.885c1.653-21.417,4.685-41.959-8.571-44.391c-13.344-2.544-21.173,23.081-17.313,44.278
	c3.787,20.853-6.141,34.699-6.203,56.366c0.229,24.999,13.691,34.48,19.736,37.381c0.786,10.06,0.948,20.131,0.946,30.34h-84.393
	c0.01-7.919-0.15-15.703-0.747-23.487c0.535-0.489,1.262-1.188,2.119-2.093c-1.428-11.348-2.793-22.726-3.953-34.205
	c-0.355,0.194-0.83,0.183-1.119-0.267c-3.137-4.809-5.625-10.121-9.021-14.841c-0.663-0.917,0.563-2.208,1.224-1.274
	c3.277,4.583,5.748,9.65,8.713,14.351c-1.428-14.372-2.553-28.918-3.203-43.681c-0.045-1.166,1.624-1.478,1.674-0.324
	c0.754,17.411,2.189,34.514,3.992,51.395c1.156-2.565,2.281-5.135,2.85-7.92c0.227-1.109,1.858-0.666,1.639,0.434
	c-0.761,3.738-2.51,7.105-4.008,10.598c-0.037,0.082-0.09,0.135-0.133,0.193c0.874,7.997,1.844,15.947,2.841,23.887
	c2.492-2.947,5.468-6.967,7.551-11.981c-0.578-5.013,0.314-10.093,2.545-14.599c-0.126-2.237-0.483-4.582-1.128-7.03
	c-5.609-23.576-7.367-19.612-6.361-36.353c1.299-16.815,3.679-32.945-6.729-34.854c-10.478-1.998-16.624,18.122-13.593,34.766
	c2.973,16.373-4.822,27.245-4.871,44.257c0.18,19.628,10.75,27.073,15.496,29.351c0.614,7.851,0.742,15.712,0.743,23.679h-7.249
	c-1.687,0-3.053,0.865-3.053,1.932c0,1.068,1.366,1.933,3.053,1.933h148.976c-0.426-1.236-0.855-2.526-1.283-3.865H209.809z
	 M490.95,336.295h-33.162c0.002-0.051,0.014-0.096,0.014-0.148c0.014-10.098-0.19-20.023-0.951-29.948
	c0.682-0.623,1.606-1.514,2.699-2.666c-1.819-14.453-3.559-28.944-5.035-43.563c-0.453,0.247-1.058,0.233-1.425-0.34
	c-3.995-6.125-7.165-12.89-11.489-18.902c-0.845-1.167,0.717-2.813,1.559-1.623c4.174,5.837,7.321,12.291,11.096,18.278
	c-1.818-18.304-3.251-36.831-4.079-55.633c-0.057-1.485,2.068-1.881,2.132-0.413c0.961,22.175,2.789,43.957,5.084,65.457
	c1.473-3.268,2.906-6.54,3.631-10.087c0.287-1.412,2.366-0.848,2.086,0.553c-0.969,4.76-3.196,9.05-5.104,13.498
	c-0.048,0.104-0.115,0.172-0.17,0.245c1.113,10.185,2.348,20.311,3.618,30.422c6.896-8.153,16.705-22.732,11.421-42.806
	c-7.144-30.027-9.383-24.978-8.101-46.298c1.653-21.417,4.685-41.959-8.571-44.391c-13.344-2.544-21.173,23.081-17.313,44.278
	c3.787,20.853-6.141,34.699-6.203,56.366c0.229,24.999,13.691,34.48,19.736,37.381c0.787,10.06,0.948,20.131,0.947,30.34h-84.394
	c0.011-7.919-0.15-15.703-0.747-23.487c0.535-0.489,1.262-1.188,2.119-2.093c-1.428-11.348-2.793-22.726-3.953-34.205
	c-0.355,0.194-0.83,0.183-1.119-0.267c-3.137-4.809-5.625-10.121-9.021-14.841c-0.663-0.917,0.563-2.208,1.224-1.274
	c3.277,4.583,5.748,9.65,8.713,14.351c-1.428-14.372-2.553-28.918-3.203-43.681c-0.045-1.166,1.624-1.478,1.674-0.324
	c0.754,17.411,2.189,34.514,3.992,51.395c1.156-2.565,2.281-5.135,2.85-7.92c0.227-1.109,1.858-0.666,1.639,0.434
	c-0.761,3.738-2.51,7.105-4.008,10.598c-0.037,0.082-0.09,0.135-0.133,0.193c0.874,7.997,1.844,15.947,2.841,23.887
	c2.129-2.518,4.609-5.818,6.587-9.852c-1.263-6.301-0.197-13.018,3.326-18.755c-0.188-1.617-0.492-3.283-0.945-5.003
	c-5.609-23.576-7.367-19.612-6.361-36.353c1.299-16.815,3.679-32.945-6.729-34.854c-10.478-1.998-16.624,18.122-13.593,34.766
	c2.973,16.373-4.822,27.245-4.871,44.257c0.18,19.628,10.75,27.073,15.496,29.351c0.614,7.851,0.742,15.712,0.742,23.679H302
	c0.296,1.31,0.597,2.6,0.901,3.865H490.95c1.687,0,3.053-0.865,3.053-1.933C494.003,337.16,492.637,336.295,490.95,336.295z
	 M205.907,228.155c0.949,12.994,2.142,25.867,3.505,38.638c1.473-3.268,2.906-6.54,3.631-10.087
	c0.287-1.412,2.366-0.848,2.086,0.553c-0.969,4.76-3.196,9.05-5.104,13.498c-0.048,0.104-0.115,0.172-0.17,0.245
	c1.113,10.185,2.348,20.311,3.618,30.422c6.896-8.153,16.705-22.732,11.421-42.806c-0.115-0.483-0.226-0.933-0.338-1.398
	c-0.221-0.077-0.421-0.184-0.59-0.329c-5.194-4.459-10.163-14.602-10.338-25.166C210.424,231.977,207.426,230.625,205.907,228.155z
	 M305.702,353.628c0.385,0.138,0.77,0.275,1.166,0.409c-0.049-0.135-0.098-0.283-0.147-0.422L305.702,353.628z M288.681,220.971
	l0.111,1.51l-3.629,5.725l-6.532,10.304l-7.589,11.971l-0.427-2.433l-5.128-29.214l-0.01-0.053l9.923,0.899l0.028,0.003l4.827,0.438
	h0.001l7.029,0.637l1.389,0.126L288.681,220.971z M283.324,228.932l1.625-4.4l0.903-2.446l-0.31-0.181l-5.486,0.474h-0.001
	l-3.215,0.278l-1.682-0.573l-6.363-2.167l-0.344,0.101l0.952,8.493l7.29-4.806l0.179-0.117l0.138,0.149l2.67,2.891v0l3.01,3.258
	l0.201,0.218L283.324,228.932z"></path>
<path id="color_x5F_2" fill="#FBC02D" d="M321.81,353.425l-15.089,0.191c0.05,0.139,0.099,0.287,0.147,0.422
	c-0.396-0.134-0.781-0.271-1.166-0.409l-11.355,0.144l-14.596,0.185l-15.075,0.191l-52.3,0.662l0.99,77.751l157.025-2.006
	l-0.973-77.732L321.81,353.425z M290.196,424.555l-15.313,0.196l-53.698,0.688l-0.825-63.696l47.314-0.604l13.505-0.172
	l20.663-0.264l26.513-0.338l33.234-0.425l0.81,63.691L290.196,424.555z M305.443,392.509c0.057,4.94-2.516,9.606-6.734,12.187
	c-1.867,1.139-3.974,1.822-6.155,1.997c-0.072,0.005-0.145,0.007-0.217,0.012c-0.257,0.017-0.514,0.031-0.771,0.033
	c-0.934,0.014-1.854-0.064-2.752-0.229c-2.008-0.367-3.895-1.184-5.563-2.372c-0.588-0.418-1.155-0.871-1.682-1.383
	c-2.675-2.631-4.184-6.141-4.234-9.896c-0.021-1.283,0.144-2.548,0.467-3.765c0.918-3.451,3.144-6.503,6.264-8.409
	c1.21-0.741,2.521-1.282,3.886-1.624c1.06-0.266,2.15-0.415,3.255-0.424C298.954,378.537,305.347,384.758,305.443,392.509z
	 M356.176,393.292l-0.348-27.436l-22.378,0.282l-23.846,0.3l-24.949,0.314l-14.879,0.188l-43.49,0.548l0.646,52.046l59.475-0.76
	l8.697-0.111l61.383-0.785l-0.221-17.444L356.176,393.292z M301.746,409.667c-2.52,1.544-5.359,2.488-8.299,2.797
	c-0.034,0.003-0.067,0.008-0.101,0.011c-0.567,0.057-1.136,0.098-1.708,0.106c-1.161,0.014-2.304-0.089-3.428-0.269
	c-0.732-0.117-1.456-0.266-2.166-0.463c-3.185-0.882-6.117-2.546-8.544-4.917c-3.804-3.707-5.944-8.684-6.018-13.995
	c-0.047-4.162,1.235-8.179,3.536-11.523c1.562-2.27,3.587-4.232,6.003-5.707c1.806-1.1,3.775-1.896,5.824-2.376
	c1.401-0.329,2.84-0.514,4.292-0.531c10.96-0.146,20.008,8.67,20.131,19.627C311.368,399.417,307.71,406.03,301.746,409.667z
	 M417.138,278.155c-8.789-7.259-21.8-6.02-29.061,2.77c-7.26,8.79-6.02,21.8,2.77,29.06c8.789,7.259,21.8,6.02,29.061-2.769
	C427.167,298.426,425.927,285.414,417.138,278.155z M411.463,292.394c-0.392-0.769-1.015-2.214-2.704-3.609
	c-1.525-1.26-2.574-0.993-3.13-0.319c-0.655,0.793-0.251,1.977,1.107,4.394c1.958,3.317,1.992,5.57,0.204,7.735
	c-1.769,2.141-4.756,2.747-7.854,1l-2.025,2.453l-2.301-1.899l1.888-2.285c-1.513-1.371-2.679-3.063-3.135-4.329l3.028-2.233
	c0.529,1.368,1.496,3.016,3.021,4.276c1.338,1.105,2.689,1.332,3.484,0.37c0.755-0.914,0.48-2.111-0.759-4.146
	c-1.796-2.941-2.516-5.558-0.589-7.891c1.748-2.117,4.574-2.574,7.503-1.005l1.888-2.285l2.299,1.899l-1.748,2.117
	c1.513,1.37,2.291,2.58,2.746,3.604L411.463,292.394z M145.979,276.82c-9.526,6.261-12.174,19.06-5.913,28.587
	c6.262,9.526,19.061,12.173,28.587,5.912c9.526-6.261,12.174-19.06,5.913-28.586C168.304,273.206,155.505,270.559,145.979,276.82z
	 M164.808,303.631l-2.493,1.639l-1.627-2.477c-1.756,1.041-3.717,1.658-5.061,1.721l-1.242-3.552
	c1.463-0.102,3.323-0.541,4.977-1.628c1.45-0.953,2.065-2.178,1.38-3.221c-0.651-0.991-1.876-1.081-4.186-0.496
	c-3.34,0.851-6.053,0.768-7.715-1.761c-1.508-2.294-1.113-5.13,1.249-7.466l-1.628-2.477l2.492-1.638l1.509,2.294
	c1.755-1.042,3.14-1.43,4.253-1.564l1.198,3.431c-0.85,0.147-2.414,0.317-4.245,1.521c-1.653,1.086-1.707,2.167-1.228,2.897
	c0.565,0.86,1.815,0.822,4.525,0.236c3.746-0.895,5.909-0.263,7.452,2.083c1.524,2.32,1.225,5.354-1.358,7.798L164.808,303.631z"></path>
<path id="color_x5F_1" fill="#0984E3" d="M278.521,199.07c0.128-0.653,0.559-1.114,0.962-1.029c0.398,0.084,0.624,0.683,0.494,1.337
	c-0.136,0.651-0.562,1.116-0.967,1.033C278.615,200.325,278.393,199.728,278.521,199.07z M270.557,199.563
	c0.403,0.082,0.832-0.382,0.964-1.036c0.133-0.653-0.092-1.253-0.49-1.337c-0.292-0.061-0.592,0.168-0.787,0.54
	c-0.015,0.028-0.028,0.055-0.042,0.085c-0.056,0.124-0.104,0.257-0.134,0.405C269.937,198.878,270.16,199.476,270.557,199.563z
	 M241.712,252.262c4.96-5.927,9.101-12.813,9.101-12.813l2.012-2.835c0.094,11.059,3.468,18.167,2.183,28.662
	c-0.169,1.386-0.417,2.829-0.768,4.35c-1.089,4.724-2.273,15.25-2.785,20.084l-0.226,0.164c0,0-1.419,14.687,3.433,34.734
	c0.999,4.128,2.143,8.08,3.299,11.688c0.428,1.339,0.857,2.629,1.283,3.865c2.377,6.916,4.586,12.074,5.433,13.988l15.075-0.191
	c-0.563-4.087-1.182-8.859-1.742-13.797c-0.146-1.282-0.287-2.572-0.422-3.865c-0.417-3.991-0.776-7.991-1.015-11.721
	c2.083,4.394,4.075,8.275,6.319,11.721c0.135,0.206,0.27,0.411,0.405,0.614c0,0-0.001,0-0.001-0.001c0,0,0.215,1.111,1.256,3.252
	c1.369,2.813,4.17,7.409,9.795,13.612l11.355-0.144l1.019-0.013l15.089-0.191c-4.308-4.428-7.595-7.342-11.474-7.778
	c-2.489-1.046-4.724-1.945-6.755-2.732c-0.229-0.899-0.455-1.821-0.68-2.754c-0.305-1.266-0.605-2.556-0.901-3.865
	c-3.128-13.855-5.648-29.62-5.809-35.713c-0.077-2.961-0.849-6.094-2.011-9.201l0.311-0.006c0,0-6.365-12.588-8.401-21.081
	c-0.493-2.058-0.735-3.878-0.568-5.217c0.331-2.631,12.213-28.824,16.105-39.429c0.151-0.412,0.173-0.786,0.1-1.13
	c2.292-3.134,4.636-6.336,6.832-9.336c5.712-7.803,10.402-14.201,10.402-14.201l-0.505-0.249l-12.182-6.012l-3.565,5.434
	l-4.569,6.963l-4.443,6.771l-4.953,6.995c-0.041,0-0.068,0-0.068,0l0.006,0.087l0.111,1.51l-3.629,5.725l-6.532,10.304
	l-7.589,11.971l-0.427-2.433l-5.128-29.214l-0.045-0.004l0.035-0.049c0,0-14.259-3.484-18.23,2.359
	c-1.716,2.525-6.762,8.94-11.938,15.413c-1.461,1.827-2.931,3.655-4.341,5.405c1.256,1.763,2.157,3.325,2.383,4.416
	c1.363,6.598-5.223,11.466-8.4,10.943c1.894,1.747,4.174,3.444,5.816,3.341C233.98,260.456,238.067,256.618,241.712,252.262z
	 M361.59,359.938l0.81,63.691l-72.203,0.925l-15.313,0.196l-53.698,0.688l-0.825-63.696l47.314-0.604l13.505-0.172l20.663-0.264
	l26.513-0.338L361.59,359.938z M356.487,417.878l-0.221-17.444l-0.091-7.142l-0.348-27.436l-22.378,0.282l-23.846,0.3l-24.949,0.314
	l-14.879,0.188l-43.49,0.548l0.646,52.046l59.475-0.76l8.697-0.111L356.487,417.878z M311.27,392.427
	c0.099,6.99-3.56,13.603-9.523,17.24c-2.52,1.544-5.359,2.488-8.299,2.797c-0.034,0.003-0.067,0.008-0.101,0.011
	c-0.567,0.057-1.136,0.098-1.708,0.106c-1.161,0.014-2.304-0.089-3.428-0.269c-0.732-0.117-1.456-0.266-2.166-0.463
	c-3.185-0.882-6.117-2.546-8.544-4.917c-3.804-3.707-5.944-8.684-6.018-13.995c-0.047-4.162,1.235-8.179,3.536-11.523
	c1.562-2.27,3.587-4.232,6.003-5.707c1.806-1.1,3.775-1.896,5.824-2.376c1.401-0.329,2.84-0.514,4.292-0.531
	C302.099,372.653,311.146,381.47,311.27,392.427z M305.443,392.509c-0.097-7.751-6.489-13.972-14.237-13.871
	c-1.104,0.009-2.195,0.158-3.255,0.424c-1.364,0.342-2.676,0.883-3.886,1.624c-3.12,1.906-5.346,4.958-6.264,8.409
	c-0.323,1.216-0.488,2.481-0.467,3.765c0.051,3.755,1.56,7.265,4.234,9.896c0.526,0.512,1.094,0.964,1.682,1.383
	c1.668,1.188,3.555,2.004,5.563,2.372c0.898,0.165,1.818,0.243,2.752,0.229c0.258-0.002,0.515-0.017,0.771-0.033
	c0.072-0.005,0.145-0.007,0.217-0.012c2.182-0.175,4.288-0.858,6.155-1.997C302.928,402.115,305.5,397.449,305.443,392.509z
	 M424.097,310.676c-9.172,11.103-25.607,12.669-36.711,3.498c-4.805-3.968-7.82-9.298-8.955-14.966
	c-1.263-6.301-0.197-13.018,3.326-18.755c0.633-1.03,1.339-2.031,2.131-2.989c9.172-11.104,25.607-12.669,36.711-3.499
	C431.702,283.136,433.269,299.572,424.097,310.676z M417.138,278.155c-8.789-7.259-21.8-6.02-29.061,2.77
	c-7.26,8.79-6.02,21.8,2.77,29.06c8.789,7.259,21.8,6.02,29.061-2.769C427.167,298.426,425.927,285.414,417.138,278.155z
	 M411.642,286.634l1.748-2.117l-2.299-1.899l-1.888,2.285c-2.929-1.569-5.755-1.111-7.503,1.005
	c-1.927,2.333-1.207,4.95,0.589,7.891c1.239,2.035,1.514,3.232,0.759,4.146c-0.795,0.962-2.146,0.735-3.484-0.37
	c-1.525-1.26-2.492-2.908-3.021-4.276l-3.028,2.233c0.456,1.266,1.622,2.958,3.135,4.329l-1.888,2.285l2.301,1.899l2.025-2.453
	c3.098,1.748,6.085,1.141,7.854-1c1.788-2.165,1.754-4.418-0.204-7.735c-1.358-2.417-1.763-3.601-1.107-4.394
	c0.556-0.674,1.604-0.94,3.13,0.319c1.689,1.396,2.313,2.841,2.704,3.609l2.925-2.156
	C413.933,289.213,413.154,288.004,411.642,286.634z M179.106,279.748c7.91,12.035,4.565,28.203-7.47,36.112
	c-12.034,7.91-28.203,4.566-36.112-7.469c-2.314-3.521-3.658-7.396-4.109-11.313c-0.578-5.013,0.314-10.093,2.545-14.599
	c1.985-4.011,5.024-7.565,9.034-10.201C155.028,264.369,171.196,267.713,179.106,279.748z M174.565,282.733
	c-6.262-9.527-19.061-12.174-28.587-5.913c-9.526,6.261-12.174,19.06-5.913,28.587c6.262,9.526,19.061,12.173,28.587,5.912
	C178.179,305.058,180.826,292.259,174.565,282.733z M164.419,293.174c-1.543-2.347-3.706-2.978-7.452-2.083
	c-2.71,0.586-3.96,0.624-4.525-0.236c-0.479-0.73-0.426-1.811,1.228-2.897c1.831-1.204,3.396-1.374,4.245-1.521l-1.198-3.431
	c-1.113,0.134-2.498,0.521-4.253,1.564l-1.509-2.294l-2.492,1.638l1.628,2.477c-2.362,2.336-2.757,5.172-1.249,7.466
	c1.662,2.529,4.375,2.612,7.715,1.761c2.31-0.585,3.534-0.495,4.186,0.496c0.686,1.043,0.07,2.268-1.38,3.221
	c-1.653,1.087-3.514,1.526-4.977,1.628l1.242,3.552c1.344-0.063,3.305-0.68,5.061-1.721l1.627,2.477l2.493-1.639l-1.747-2.659
	C165.644,298.528,165.943,295.494,164.419,293.174z"></path>
</svg>