<?xml version="1.0" standalone="no"?>
<svg version="1.1" id="Layer_1" xmlns="http://www.w3.org/2000/svg" xmlns:xlink="http://www.w3.org/1999/xlink" x="0px" y="0px" width="595.28px" height="595.28px" viewBox="0 0 595.28 595.28" enable-background="new 0 0 595.28 595.28" xml:space="preserve">
<path id="color_x5F_5" fill="#FFD2BB" d="M411.261,343.832c1.798,3.864,1.491,9.589,1.378,17.078
	c-0.177,11.761-3.937,37.097-5.081,44.56l-0.144-0.585l-0.234,0.139l-0.65,0.385c-1.999-6.269-7.852-24.99-11.93-41.764
	c-6.099,8.339-13.162,17.308-16.827,21.91l0.036-0.154l-1.853,0.115c1.256-5.729,4.126-18.455,7.588-31.414
	c0.454-1.701,0.918-3.406,1.391-5.1c4.166-14.934,8.941-28.973,12.733-31.598c1.391-0.963,3.879-0.988,6.725-0.537l-1.025,0.123
	l2.724,11.312l2.065,8.579l0.63,2.619l1.081,4.49C410.343,343.932,410.804,343.881,411.261,343.832z M420.185,240.719
	c-0.127-0.372-0.233-0.746-0.322-1.12c0.341,0.225,0.573,0.335,0.573,0.335s8.432-2.769,13.462-5.744
	c0.225,0.299,0.482,0.57,0.802,0.785c3.111,2.088,3.614,3.914,3.882,5.016c0.159,0.652,0.462,1.446,0.684,1.989
	c0.153,0.374,0.269,0.632,0.269,0.632s-0.001-0.292,0.013-0.729c0.048-1.539,0.288-4.975,1.462-4.629
	c2.231,0.651,3.872,7.222,4.195,8.61c-0.006,0.03-0.011,0.06-0.018,0.089l4.272,12.442l1.412-0.073l-0.39,0.314l-0.735,0.594
	l-2.38,1.92l-5.999,4.84l-1.836-2.149l-1.366-1.599l-2.668-3.123l1.568-0.081l-1.269-3.695l-2.591,0.89
	c-6.168,2.115-8.599-2.633-10.716-8.801L420.185,240.719z M432.176,240.221c0.094,0.662,0.503,1.152,0.905,1.102
	c0.41-0.055,0.658-0.635,0.566-1.293c-0.093-0.66-0.503-1.152-0.906-1.1C432.331,238.984,432.081,239.563,432.176,240.221z
	 M423.922,242.225c0.094,0.662,0.504,1.152,0.906,1.1c0.409-0.055,0.657-0.633,0.566-1.291c-0.092-0.662-0.503-1.152-0.907-1.1
	C424.078,240.986,423.827,241.566,423.922,242.225z M432.908,228.462l-0.029,0.022c0,0,0.011,0,0.027-0.001
	C432.907,228.477,432.907,228.469,432.908,228.462z M452.427,294.17c-1.97-2.678-14.519-10.01-14.519-10.01
	s-12.023-7.829-16.48-8.642c-0.698-0.336-1.473-0.528-2.292-0.528c-0.793,0-1.546,0.18-2.227,0.495
	c-1.928,0.894-3.273,2.908-3.273,5.255c0,0.953,0.225,1.849,0.617,2.641c0.915,1.846,2.756,3.109,4.883,3.109
	c0.645,0,1.261-0.122,1.835-0.335c0.606-0.225,1.166-0.552,1.653-0.97c0.471-0.404,0.871-0.892,1.192-1.436
	c6.968,8.457,20.95,19.57,25.417,20.846C451.636,305.283,455.892,298.877,452.427,294.17z M431.495,313.684
	c-0.703-1.143-2.001-2.4-4.402-2.223c-0.043-0.031-0.083-0.059-0.126-0.09c0.021-0.059,0.037-0.109,0.05-0.146
	c0.005-0.012-0.257-0.119-0.671-0.28c-0.576-0.225-1.456-0.558-2.394-0.915c-1.932-3.631-6.506-8.697-6.506-8.697
	s-1.551-2.316-3.483-4.732c-1.401-1.752-3.001-3.551-4.365-4.563c-0.23-0.17-0.455-0.322-0.669-0.443
	c-3.076-1.741-6.477-1.008-8.8,0.424c-1.974,1.216-3.172,2.934-2.703,4.084c1.521,3.721,7.255,8.933,13.623,12.787
	c2.967,1.797,6.071,3.301,8.953,4.219c0.285,0.63,0.585,1.297,0.808,1.79c0.198,0.439,0.335,0.743,0.335,0.743
	c-0.007,0.061-0.017,0.115-0.022,0.18c-0.037,0.426,0.01,0.914,0.123,1.439c0.326,1.531,2.574,3.701,4.365,4.125
	c1.044,0.246,2.629-0.766,4.001-1.906c1.504-1.251,2.75-2.659,2.728-2.744c-0.022-0.082-0.047-1.283-0.084-1.371
	C432.177,315.181,431.972,314.459,431.495,313.684z M158.221,253.879c-3.97,0-6.59-2.088-7.871-4.846h-1.048l3.229-12.67
	c-0.087-0.298-0.167-0.599-0.231-0.904c0,0,1.87-8.191,4.393-8.898c1.387-0.39,1.427,4.406,1.423,5.27
	c0,0.084-0.001,0.145-0.001,0.145s0.025-0.055,0.059-0.131c0.171-0.377,0.696-1.575,0.932-2.498c0.283-1.105,0.81-2.939,3.969-5.006
	c1.092-0.715,1.604-1.991,1.817-3.352c0.874,0.518,1.788,1.023,2.744,1.502c7,3.5,9,3.5,9,3.5s0.365-0.101,0.938-0.296
	c0.036,1.095-0.072,2.212-0.356,3.327l-1.766,6.926c-1.472,5.775-3.311,10.379-8.386,9.977l-0.792,3.109h-0.182
	C164.811,251.791,162.19,253.879,158.221,253.879z M172.919,232.865c0.406,0.059,0.822-0.434,0.927-1.1
	c0.102-0.66-0.145-1.246-0.555-1.307c-0.408-0.057-0.825,0.434-0.927,1.098C172.265,232.219,172.508,232.805,172.919,232.865z
	 M164.629,230.752c0.406,0.059,0.822-0.434,0.927-1.1c0.102-0.66-0.145-1.246-0.555-1.307c-0.407-0.057-0.825,0.434-0.926,1.098
	C163.975,230.105,164.219,230.691,164.629,230.752z M148.286,329.684c-0.218-0.027-0.435-0.043-0.65-0.048
	c0.099-2.89-0.063-5.497-0.063-5.497s0.072-1.795,0.105-4.296c0.023-1.748,0.026-3.84-0.027-5.905
	c-0.093-3.617-0.36-7.152-1.007-8.609c-2.718-6.117-12.487-7.162-13.378-4.729c-0.806,2.209-0.554,6.965,0.437,12.352
	c1.377,7.479,4.187,16.164,7.609,20.971c-0.172,0.466-0.3,0.956-0.364,1.471c-0.082,0.655-0.062,1.299,0.043,1.918
	c0.472,2.785,2.716,5.053,5.664,5.422c3.604,0.449,6.889-2.107,7.34-5.709C154.445,333.418,151.887,330.135,148.286,329.684z
	 M205.105,281.512c-0.007-0.014-0.014-0.025-0.021-0.039c-1.52-2.809-4.475-5.748-8.216-6.07c-2.142-0.184-7.631,1.517-12.005,3.031
	c-3.068,1.063-5.581,2.033-6.008,2.199c-0.042,0.016-0.071,0.027-0.071,0.027s-2.518,0.698-5.217,1.734
	c-0.075-0.202-0.16-0.402-0.257-0.6c-1.601-3.26-5.539-4.604-8.8-3.004c-3.259,1.602-4.604,5.541-3.002,8.801
	c1.601,3.26,5.539,4.604,8.798,3.002c0.465-0.229,0.887-0.51,1.271-0.824c2.802,0.825,6.45,1.198,10.339,1.227
	c9.625,0.07,20.68-1.969,23.787-4.49c0.737-0.6,0.636-2.179-0.109-3.963C205.452,282.204,205.293,281.86,205.105,281.512z"></path>
<path id="color_x5F_4" fill="#00CEC9" d="M420.002,313.107c0.285,0.63,0.585,1.297,0.808,1.79l-7.042,0.845
	c-0.042-0.084-0.091-0.166-0.132-0.252c-1.064-2.217-1.914-4.432-2.586-6.602C414.017,310.686,417.12,312.189,420.002,313.107z
	 M420.971,286.155c-1.806,3.696-4.402,7.458-7.008,10.444c1.932,2.416,3.483,4.732,3.483,4.732s4.574,5.066,6.506,8.697
	c0.938,0.357,1.817,0.69,2.394,0.915c0.245-1.621,0.418-2.944,0.41-3.415c-0.072-3.841-2.295-16.682-4.132-22.344
	C422.137,285.604,421.577,285.931,420.971,286.155z M472.636,293.49c1.5,6,12.5,25.5-10,33c-1.475,0.492-2.941,0.922-4.395,1.3
	c0.094-5.405-1.322-11.534-1.371-16.3c-0.049-0.01-0.164-0.012-0.308-0.01c-0.812-3.107-1.349-5.93-1.276-7.811
	c0.14-3.84,14.021-33.98,9.84-39.311c-1.56-2.83-4.14-4.689-7.06-4.689l-7.586-1.033l0.39-0.314l-1.412,0.073l-4.272-12.442
	c0.006-0.029,0.012-0.059,0.018-0.089c-0.323-1.389-1.964-7.959-4.195-8.61c-1.175-0.346-1.414,3.09-1.462,4.629
	c-0.014,0.437-0.013,0.729-0.013,0.729s-0.115-0.258-0.269-0.632c-0.222-0.543-0.525-1.337-0.684-1.989
	c-0.268-1.102-0.771-2.928-3.882-5.016c-0.319-0.215-0.577-0.486-0.802-0.785c-5.03,2.976-13.462,5.744-13.462,5.744
	s-0.232-0.11-0.573-0.335c0.089,0.374,0.195,0.748,0.322,1.12l2.305,6.713c2.117,6.168,4.548,10.916,10.716,8.801l2.591-0.89
	l1.269,3.695l-1.568,0.081l-6.81,0.27l-0.011,0.182c-0.002,0-0.004-0.001-0.006-0.001v-0.03c-0.047,0.01-0.046,0.019-0.004,0.029
	c-3.101-0.744-8.213,1.075-10.96,5.451c-0.225,0.358-0.596,0.938-1.075,1.683c-1.783-2.7-5.163-7.519-1.995-15.212
	c1.895-4.602,3.639-9.046,4.844-12.164c-1.702-1.296-4.643-4.736,0.29-10.988c2.145-2.717,11.475-3.795,16.169-4.172
	c2.739-0.802,5.422-0.753,8.263,2.863c0,0,1.828,3.171,2.596,7.962c1.058,2.608,3.793,6.577,10.838,8.499c11,3,23.5,7,26.5,23
	S471.136,287.49,472.636,293.49z M432.906,228.483c0-0.007,0.001-0.015,0.001-0.021l-0.029,0.022
	C432.879,228.484,432.89,228.484,432.906,228.483z M220.703,389.492l0.285,0.79l3.969,11.001l13.617-7.859l-16.764-3.688
	L220.703,389.492z M407.559,405.47l-0.144-0.585l-0.234,0.139l-0.65,0.385l-16.382,9.678h19.773l-0.145-0.59L407.559,405.47z
	 M357.794,386.641l17.612,8.984l2.368-10.07l0.036-0.154l-1.853,0.115L357.794,386.641z M175.618,401.846l-0.772-0.705l-0.148,0.826
	l-1.983,11.072l-0.079,0.439h15.722l-0.481-0.439L175.618,401.846z M177.574,225.694c2.959-1.007,11.547-4.564,5.062-10.204
	c-11.5-10-27-1.5-27-1.5s0.058,0.057,0.144,0.14c-0.718,0.499-1.445,1.177-2.185,2.097c0,0-3.422,5.764-3.067,13.563
	c0.169,3.721,1.409,3.945,1.773,5.67c0,0,1.87-8.191,4.393-8.898c1.387-0.39,1.427,4.406,1.423,5.27
	c0,0.084-0.001,0.145-0.001,0.145s0.025-0.055,0.059-0.131c0.171-0.377,0.696-1.575,0.932-2.498c0.283-1.105,0.81-2.939,3.969-5.006
	c1.092-0.715,1.604-1.991,1.817-3.352c0.874,0.518,1.788,1.023,2.744,1.502c7,3.5,9,3.5,9,3.5S177,225.89,177.574,225.694z"></path>
<path id="color_x5F_3" fill="#E84393" d="M220.703,389.492l0.285,0.79c-2.975-2.554-11.482-10.3-17.314-20.06
	c-1.215-2.034-2.167-3.959-2.905-5.785v-21.398h-5.681c-0.29,0.852-0.852,1.479-1.678,1.833c-0.175,0.495-0.388,1.12-0.636,1.861
	c-3.678,11.021-14.809,47.424-17.157,55.112l-0.772-0.705l-0.148,0.826c-1.3-3.698-4.795-14.66-4.967-26.029
	c-0.133-8.846,2.092-14.633,5.16-18.434c0.393-3.092,0.92-7.438,1.449-12.365c-9.166-0.742-19.123-1.984-23.205-1.648
	c-9.833,0.809-14.628,0.614-17.109-0.451c-0.079-0.033-0.149-0.071-0.223-0.106c0.782-0.25,1.482-0.603,1.999-1.108
	c0.992-0.971,2.112-2.604,3.188-4.514c0.472,2.785,2.716,5.053,5.664,5.422c3.604,0.449,6.889-2.107,7.34-5.709
	c0.45-3.605-2.107-6.889-5.709-7.34c-0.218-0.027-0.435-0.043-0.65-0.048c0.099-2.89-0.063-5.497-0.063-5.497
	s0.072-1.795,0.105-4.296l27.424,0.196l0.01-0.043c0.175,0.069,0.351,0.139,0.523,0.21c13.044,0.171,29.195,2.975,34.5,11.952
	c0.782,1.324,2.349,8.212,4.097,16.844c0.333,1.646,0.673,3.354,1.015,5.1c2.773,14.15,5.703,30.721,6.564,35.635L220.703,389.492z"></path>
<path id="color_x5F_2" fill="#FBC02D" d="M467.179,339.5v74.996h-57.402l-2.218-9.026c1.144-7.463,4.904-32.799,5.081-44.56
	c0.112-7.489,0.42-13.214-1.378-17.078c8.184-0.869,14.153-0.185,26.875-0.342c4.698-0.057,9.995-1.641,13.831-3.99H467.179z
	 M176.34,345.139c-9.166-0.742-19.123-1.984-23.205-1.648c-9.833,0.809-14.628,0.614-17.109-0.451h-0.589
	c-3.068,0.826-7.167,0.17-7.167,0.17s-0.008-0.068-0.02-0.17h-17.481v70h61.946l1.983-11.072c-1.3-3.698-4.795-14.66-4.967-26.029
	c-0.133-8.846,2.092-14.633,5.16-18.434C175.284,354.412,175.812,350.066,176.34,345.139z M193.411,344.872
	c-0.175,0.495-0.388,1.12-0.636,1.861c-3.678,11.021-14.809,47.424-17.157,55.112l12.259,11.193h12.892v-48.602v-21.398h-5.681
	C194.799,343.891,194.236,344.518,193.411,344.872z M213.552,208.243c0.652,0,1.182-0.527,1.182-1.18v-10.535
	c0-0.652-0.529-1.182-1.182-1.182s-1.182,0.529-1.182,1.182v10.535C212.371,207.716,212.9,208.243,213.552,208.243z
	 M214.734,238.649v-10.531c0-0.654-0.529-1.182-1.182-1.182s-1.182,0.527-1.182,1.182v10.531c0,0.652,0.529,1.182,1.182,1.182
	S214.734,239.302,214.734,238.649z M222.897,217.589c0,0.654,0.53,1.184,1.183,1.184h10.532c0.653,0,1.183-0.529,1.183-1.184
	c0-0.652-0.529-1.182-1.183-1.182H224.08C223.427,216.407,222.897,216.937,222.897,217.589z M192.492,218.772h10.533
	c0.652,0,1.182-0.529,1.182-1.184c0-0.652-0.529-1.182-1.182-1.182h-10.533c-0.652,0-1.182,0.529-1.182,1.182
	C191.31,218.243,191.839,218.772,192.492,218.772z M221.832,210.981l7.447-7.449c0.463-0.461,0.463-1.209,0-1.67
	c-0.461-0.463-1.209-0.463-1.67,0l-7.449,7.447c-0.461,0.463-0.461,1.209,0,1.672C220.622,211.442,221.371,211.442,221.832,210.981z
	 M205.273,224.198l-7.447,7.445c-0.462,0.465-0.462,1.211,0,1.674c0.461,0.461,1.208,0.461,1.67,0l7.448-7.449
	c0.462-0.461,0.462-1.209,0-1.67S205.734,223.737,205.273,224.198z M227.609,233.317c0.461,0.461,1.209,0.461,1.67,0
	c0.463-0.463,0.463-1.209,0-1.674l-7.447-7.445c-0.461-0.461-1.21-0.461-1.672,0c-0.461,0.461-0.461,1.209,0,1.67L227.609,233.317z
	 M199.496,201.862c-0.462-0.463-1.209-0.463-1.67,0c-0.462,0.461-0.462,1.209,0,1.67l7.447,7.449c0.461,0.461,1.209,0.461,1.671,0
	c0.462-0.463,0.462-1.209,0-1.672L199.496,201.862z M375.901,220.938c0.652,0,1.182-0.527,1.182-1.18v-10.535
	c0-0.652-0.529-1.182-1.182-1.182s-1.182,0.529-1.182,1.182v10.535C374.72,220.41,375.249,220.938,375.901,220.938z
	 M375.901,252.525c0.652,0,1.182-0.529,1.182-1.182v-10.531c0-0.654-0.529-1.182-1.182-1.182s-1.182,0.527-1.182,1.182v10.531
	C374.72,251.996,375.249,252.525,375.901,252.525z M396.961,229.102h-10.532c-0.652,0-1.183,0.529-1.183,1.182
	c0,0.654,0.53,1.184,1.183,1.184h10.532c0.653,0,1.183-0.529,1.183-1.184C398.144,229.631,397.614,229.102,396.961,229.102z
	 M354.841,231.467h10.533c0.652,0,1.182-0.529,1.182-1.184c0-0.652-0.529-1.182-1.182-1.182h-10.533
	c-0.652,0-1.182,0.529-1.182,1.182C353.659,230.938,354.188,231.467,354.841,231.467z M384.181,223.676l7.447-7.449
	c0.463-0.461,0.463-1.209,0-1.67c-0.461-0.463-1.209-0.463-1.67,0l-7.449,7.447c-0.461,0.463-0.461,1.209,0,1.672
	C382.971,224.137,383.72,224.137,384.181,223.676z M367.622,236.893l-7.447,7.445c-0.462,0.465-0.462,1.211,0,1.674
	c0.461,0.461,1.208,0.461,1.67,0l7.448-7.449c0.462-0.461,0.462-1.209,0-1.67S368.083,236.432,367.622,236.893z M384.181,236.893
	c-0.461-0.461-1.21-0.461-1.672,0c-0.461,0.461-0.461,1.209,0,1.67l7.449,7.449c0.461,0.461,1.209,0.461,1.67,0
	c0.463-0.463,0.463-1.209,0-1.674L384.181,236.893z M367.622,223.676c0.461,0.461,1.209,0.461,1.671,0
	c0.462-0.463,0.462-1.209,0-1.672l-7.448-7.447c-0.462-0.463-1.209-0.463-1.67,0c-0.462,0.461-0.462,1.209,0,1.67L367.622,223.676z
	 M345.718,336.561c0.371-0.34,0.874-0.824,1.47-1.453c-0.992-7.873-1.938-15.764-2.743-23.729c-0.246,0.135-0.577,0.127-0.776-0.186
	c-2.176-3.336-3.904-7.021-6.258-10.297c-0.461-0.635,0.39-1.531,0.848-0.885c2.273,3.182,3.988,6.697,6.045,9.957
	c-0.991-9.971-1.772-20.064-2.224-30.305c-0.031-0.809,1.127-1.025,1.162-0.225c0.523,12.078,1.519,23.945,2.768,35.656
	c0.804-1.779,1.585-3.563,1.979-5.494c0.156-0.77,1.29-0.463,1.138,0.301c-0.528,2.594-1.742,4.93-2.781,7.354
	c-0.029,0.055-0.064,0.092-0.093,0.133c0.606,5.547,1.278,11.064,1.971,16.572c3.755-4.443,9.1-12.383,6.222-23.32
	c-3.891-16.354-5.111-13.605-4.413-25.219c0.9-11.666,2.55-22.855-4.67-24.18c-7.269-1.389-11.534,12.572-9.43,24.119
	c2.062,11.359-3.346,18.9-3.38,30.705c0.125,13.617,7.459,18.781,10.752,20.363c0.326,4.176,0.454,8.357,0.496,12.572h-50.125
	c-0.044-4.175-0.183-8.309-0.499-12.441c0.371-0.34,0.874-0.824,1.47-1.453c-0.992-7.873-1.938-15.764-2.743-23.729
	c-0.246,0.135-0.577,0.127-0.776-0.186c-2.176-3.336-3.904-7.021-6.258-10.297c-0.461-0.635,0.39-1.531,0.848-0.885
	c2.273,3.182,3.988,6.697,6.045,9.957c-0.991-9.971-1.772-20.064-2.224-30.305c-0.031-0.809,1.127-1.025,1.162-0.225
	c0.523,12.078,1.519,23.945,2.768,35.656c0.804-1.779,1.585-3.563,1.979-5.494c0.156-0.77,1.29-0.463,1.138,0.301
	c-0.528,2.594-1.742,4.93-2.781,7.354c-0.029,0.055-0.064,0.092-0.093,0.133c0.606,5.547,1.278,11.064,1.971,16.572
	c3.755-4.443,9.1-12.383,6.222-23.32c-3.891-16.354-5.111-13.605-4.413-25.219c0.9-11.666,2.55-22.855-4.67-24.18
	c-7.269-1.389-11.534,12.572-9.43,24.119c2.062,11.359-3.346,18.9-3.38,30.705c0.125,13.617,7.459,18.781,10.752,20.363
	c0.326,4.176,0.454,8.357,0.496,12.572h-46.641c-0.042-4.678-0.187-9.308-0.541-13.936c0.4-0.365,0.942-0.889,1.584-1.566
	c-1.069-8.488-2.09-16.996-2.957-25.584c-0.266,0.145-0.622,0.139-0.837-0.199c-2.346-3.598-4.208-7.57-6.748-11.102
	c-0.497-0.686,0.42-1.652,0.915-0.953c2.451,3.428,4.3,7.219,6.518,10.734c-1.069-10.75-1.911-21.633-2.398-32.676
	c-0.033-0.871,1.216-1.104,1.253-0.242c0.564,13.025,1.638,25.818,2.984,38.445c0.867-1.918,1.709-3.84,2.133-5.922
	c0.169-0.832,1.391-0.5,1.227,0.324c-0.568,2.795-1.877,5.313-2.998,7.926c-0.031,0.061-0.069,0.1-0.1,0.145
	c0.653,5.98,1.378,11.928,2.125,17.867c4.049-4.789,9.811-13.352,6.709-25.143c-4.196-17.633-5.511-14.668-4.758-27.191
	c0.971-12.576,2.75-24.641-5.036-26.07c-7.836-1.496-12.435,13.557-10.167,26.006c2.222,12.248-3.607,20.379-3.644,33.105
	c0.134,14.682,8.042,20.25,11.593,21.955c0.365,4.674,0.498,9.355,0.538,14.076h-27.787c0.333,1.646,0.673,3.354,1.015,5.1h27.8
	h0.322h48.51c0.32,0.148,0.708,0.158,1.052,0h51.488c0.32,0.148,0.708,0.158,1.052,0h38.075c0.454-1.701,0.918-3.406,1.391-5.1
	h-38.72C346.173,344.827,346.035,340.693,345.718,336.561z M243.72,192.758c0-27.019,21.981-49,49-49s49,21.981,49,49
	s-21.981,49-49,49S243.72,219.776,243.72,192.758z M249.72,192.758c0,23.71,19.29,43,43,43s43-19.29,43-43s-19.29-43-43-43
	S249.72,169.048,249.72,192.758z M301.719,205.758c0.551,0,1.1-0.227,1.495-0.671c0.734-0.826,0.66-2.09-0.166-2.824l-8.329-7.403
	v-23.102c0-1.104-0.896-2-2-2s-2,0.896-2,2v24.898l9.671,8.597C300.772,205.592,301.247,205.758,301.719,205.758z"></path>
<path id="color_x5F_1" fill="#0984E3" d="M432.176,240.221c-0.095-0.658,0.155-1.236,0.565-1.291c0.403-0.053,0.813,0.439,0.906,1.1
	c0.092,0.658-0.156,1.238-0.566,1.293C432.679,241.373,432.27,240.883,432.176,240.221z M424.828,243.324
	c0.409-0.055,0.657-0.633,0.566-1.291c-0.092-0.662-0.503-1.152-0.907-1.1c-0.409,0.053-0.66,0.633-0.565,1.291
	C424.016,242.887,424.426,243.377,424.828,243.324z M456.563,311.48c-0.812-3.107-1.349-5.93-1.276-7.811
	c0.14-3.84,14.021-33.98,9.84-39.311c-1.56-2.83-4.14-4.689-7.06-4.689l-7.586-1.033l-0.735,0.594l-2.38,1.92l-5.999,4.84
	l-1.836-2.149l-1.366-1.599l-2.668-3.123l-6.81,0.27l-0.011,0.182c-0.002,0-0.004-0.001-0.006-0.001v0.001
	c-0.003-0.001-0.002-0.001-0.004-0.002c-3.101-0.744-8.213,1.075-10.96,5.451c-0.225,0.358-0.596,0.938-1.075,1.683
	c-3.395,5.271-12.417,19.071-16.502,25.315c2.323-1.432,5.724-2.165,8.8-0.424c0.215,0.121,0.439,0.273,0.669,0.443
	c1.364,1.012,2.964,2.811,4.365,4.563c2.606-2.986,5.202-6.748,7.008-10.444c-0.575,0.213-1.191,0.335-1.835,0.335
	c-2.127,0-3.968-1.264-4.883-3.109c-0.392-0.792-0.617-1.688-0.617-2.641c0-2.347,1.346-4.361,3.273-5.255
	c0.681-0.315,1.433-0.495,2.227-0.495c0.819,0,1.594,0.192,2.292,0.528c4.458,0.813,16.48,8.642,16.48,8.642
	s12.549,7.332,14.519,10.01c3.465,4.707-0.791,11.113-3.194,10.426c-4.467-1.275-18.448-12.389-25.417-20.846
	c-0.321,0.544-0.721,1.031-1.192,1.436c1.837,5.662,4.06,18.503,4.132,22.344c0.008,0.471-0.166,1.794-0.41,3.415
	c0.414,0.161,0.676,0.269,0.671,0.28c-0.013,0.037-0.029,0.088-0.05,0.146c0.043,0.031,0.083,0.059,0.126,0.09
	c2.4-0.178,3.699,1.08,4.402,2.223c0.477,0.775,0.682,1.497,0.76,1.68c0.037,0.088,0.062,1.289,0.084,1.371
	c0.022,0.085-1.224,1.493-2.728,2.744c-1.372,1.141-2.957,2.152-4.001,1.906c-1.791-0.424-4.039-2.594-4.365-4.125
	c-0.113-0.525-0.16-1.014-0.123-1.439c0.006-0.064,0.016-0.119,0.022-0.18c0,0-0.137-0.304-0.335-0.743l-7.042,0.845l-9.373,1.125
	l-1.025,0.123l2.724,11.312l2.065,8.579l0.63,2.619l1.081,4.49c0.473-0.059,0.934-0.109,1.391-0.158
	c8.184-0.869,14.153-0.185,26.875-0.342c4.698-0.057,9.995-1.641,13.831-3.99c1.92-1.177,3.481-2.541,4.404-4.01
	c1.35-2.148,1.82-4.824,1.871-7.7c0.094-5.405-1.322-11.534-1.371-16.3C456.821,311.48,456.706,311.479,456.563,311.48z
	 M186.771,252.534c-1.588-2.15-3.833-3.501-6.33-3.501h-14.167h-0.182c-1.281,2.758-3.901,4.846-7.871,4.846
	s-6.59-2.088-7.871-4.846h-1.048h-13.487c-18.573-2.809-8.06,89.727-7.564,94.006c0.012,0.102,0.02,0.17,0.02,0.17
	s4.099,0.656,7.167-0.17c0.124-0.033,0.246-0.068,0.366-0.106c0.782-0.25,1.482-0.603,1.999-1.108
	c0.992-0.971,2.112-2.604,3.188-4.514c-0.105-0.619-0.125-1.263-0.043-1.918c0.064-0.515,0.192-1.005,0.364-1.471
	c-3.422-4.807-6.232-13.492-7.609-20.971c-0.991-5.387-1.243-10.143-0.437-12.352c0.891-2.434,10.66-1.389,13.378,4.729
	c0.646,1.457,0.914,4.992,1.007,8.609c0.053,2.065,0.05,4.157,0.027,5.905l27.424,0.196l0.01-0.043l6.804-29
	c-3.889-0.028-7.538-0.401-10.339-1.227c-0.384,0.314-0.806,0.596-1.271,0.824c-3.259,1.602-7.197,0.258-8.798-3.002
	c-1.602-3.26-0.257-7.199,3.002-8.801c3.261-1.6,7.199-0.256,8.8,3.004c0.097,0.197,0.182,0.397,0.257,0.6
	c2.7-1.036,5.217-1.734,5.217-1.734s0.029-0.012,0.071-0.027c0.427-0.166,2.94-1.136,6.008-2.199
	c4.374-1.515,9.864-3.215,12.005-3.031c3.741,0.322,6.696,3.262,8.216,6.07c-3.56-6.41-16.03-26.566-17.799-28.436
	C187.118,252.859,186.945,252.695,186.771,252.534z M205.593,282.543c0.022-0.026,0.038-0.045,0.042-0.053
	c-0.141-0.271-0.323-0.605-0.53-0.979C205.293,281.86,205.452,282.204,205.593,282.543z M165.001,228.346
	c-0.407-0.057-0.825,0.434-0.926,1.098c-0.1,0.662,0.144,1.248,0.554,1.309c0.406,0.059,0.822-0.434,0.927-1.1
	C165.658,228.992,165.412,228.406,165.001,228.346z M173.292,230.459c-0.408-0.057-0.825,0.434-0.927,1.098
	c-0.1,0.662,0.144,1.248,0.555,1.309c0.406,0.059,0.822-0.434,0.927-1.1C173.948,231.105,173.702,230.52,173.292,230.459z"></path>
</svg>