<?xml version="1.0" standalone="no"?>
<svg version="1.1" id="Layer_1" xmlns="http://www.w3.org/2000/svg" xmlns:xlink="http://www.w3.org/1999/xlink" x="0px" y="0px" width="595.28px" height="595.28px" viewBox="0 0 595.28 595.28" enable-background="new 0 0 595.28 595.28" xml:space="preserve">
<path id="color_x5F_2" fill="#FBC02D" d="M260.123,269.054c0.53,0.898,1.125,1.754,1.783,2.564
	c-0.009-0.006-0.018-0.012-0.027-0.019C261.153,271.097,260.58,270.196,260.123,269.054z M268.6,274.922l4.235-0.835
	c-1.357,0.072-2.717,0.128-4.079,0.161C268.849,274.475,268.771,274.708,268.6,274.922z M308.186,235.053
	c-3.873,2.091-7.931,4.376-10.791,6.005c0.271-0.108,0.545-0.207,0.813-0.319C301.956,239.169,305.238,237.258,308.186,235.053z
	 M349.093,233.567l0.453-0.635c0,0,0.766,1.532,1.915,3.792c-0.414-1.739-0.771-3.483-1.073-5.235
	C349.949,232.179,349.52,232.872,349.093,233.567z M259.552,257.862c0.806,5.956,3.179,11.75,8.008,15.378
	c0.278-0.096,0.524-0.16,0.665-0.161c4.533-0.031,9.063-0.286,13.57-0.759l1.678-0.331
	C277.829,263.225,269.353,258.777,259.552,257.862z M462.305,197.516c-12.1-6.871-26.575-8.654-39.945-11.772
	c-12.387-2.89-24.002-8.646-36.843-9.169c-4.095,7.088-18.126,20.46-21.052,6.376c-0.035-0.166-0.02-0.323,0.033-0.469
	c-0.07,0.006-0.141,0.011-0.211,0.007c-6.854-0.406-12.518,1.993-17.379,5.938c-3.815,4.446-9.831,12.239-14.339,18.173
	c-3.793,6.36-7.163,12.834-10.593,17.834c-6.508,9.489-15.916,16.14-26.875,19.608c-11.689,3.7-23.986,4.765-35.863,7.71
	c-0.041,1.489,0,3.012,0.137,4.539c0.106,0.004,0.213,0.001,0.319,0.006c12.733,0.554,21.045,6.57,26.419,15.173l19.876-3.919
	c6.134-1.627,12.326-3.571,17.768-6.443c3.079-1.625,5.694-3.642,8.006-5.918c2.628-3.115,5.272-6.819,7.449-9.589
	c0.172-0.219,0.349-0.441,0.526-0.664c3.105-4.902,5.87-10.126,9.12-14.999c0.179-0.269,0.656-0.455,1.173-0.564
	c-0.902-6.119-1.184-12.313-1.207-18.564c-0.005-1.252,2.924-1.725,2.93-0.24c0.037,9.722,0.574,19.571,3.534,28.904
	c2.423,7.644,6.585,14.445,9.257,21.961c2.304,6.479,4.23,13.119,6.969,19.436c2.431,5.606,5.724,12.966,12.119,14.869
	c0.638,0.189,0.738,0.544,0.556,0.899c21.833,1.33,48.052-4.021,58.007-25.855c0.015-0.032,0.039-0.062,0.063-0.092
	c-0.133-0.024-0.244-0.07-0.325-0.143c-17.035-15.129-19.378-37.446-27.093-57.638c-0.06-0.156,0.031-0.319,0.206-0.472
	c-4.136-1.121-8.142-2.632-11.608-5.204c-0.697-0.518,1.933-1.663,2.703-1.092c6.597,4.895,15.188,5.778,22.965,7.62
	c5.727,1.356,11.641,3.068,17.051,5.402c4.858,2.095,8.596,4.991,11.504,9.456c2.579,3.96,4.029,8.56,6.3,12.699
	c2.961,5.396,6.157,10.671,9.491,15.845c2.04,3.164,4.002,6.758,6.601,9.514c0.059,0.062,0.102,0.117,0.135,0.167
	c0.279-0.033,0.56-0.063,0.841-0.089c1.62-0.155,3.246-0.319,4.849-0.615c1.657-0.306,3.28-0.716,4.827-1.261
	c2.24-0.99,4.193-2.079,5.759-3.059c2.079-1.609,3.779-3.701,4.884-6.431c0.037-0.092,0.106-0.176,0.19-0.255
	C486.873,236.708,484.292,210.005,462.305,197.516z M315.879,265.6c0,0,1.692-0.678,3.883-1.69
	c-1.915,0.718-3.836,1.412-5.771,2.063L315.879,265.6z M366.641,276.567c-0.604-1.631-1.183-3.271-1.748-4.916
	C365.236,273.092,365.857,274.786,366.641,276.567z M418.14,213.211c0.077,0.207,0.15,0.415,0.226,0.622l19.877,4.529
	c-4.959-1.693-10.097-2.976-15.142-4.064C421.459,213.943,419.797,213.595,418.14,213.211z M397.212,297.933
	c3,0,15.667-2.667,15.667-2.667s0.826-0.357,2.063-0.897c-6.505,1.979-13.396,3.05-20.152,3.44
	C395.797,297.885,396.646,297.933,397.212,297.933z"></path>
<path id="color_x5F_1" fill="#0984E3" d="M345.886,159.197c-1.164,0.227-2.356,0.167-3.514,0.391
	c-0.464,0.09-1.538,0.22-1.679-0.468c-0.706-3.452,0.932-6.769,2.314-9.84c0.455-1.01,3.368-1.215,2.734,0.193
	c-1.15,2.556-2.545,5.352-2.229,8.219c0.642-0.046,1.283-0.086,1.914-0.208C347.193,157.141,347.695,158.845,345.886,159.197z
	 M360.137,159.431c-0.72-0.067-1.504,0.239-1.895,0.86c-0.097,0.153-0.273,0.339-0.455,0.519c0.125-0.123-0.212,0.17-0.19,0.153
	c-0.041,0.029-0.083,0.057-0.125,0.084c-0.51,0.206-1.151,0.622-0.989,1.228c0.178,0.663,1.178,0.694,1.695,0.529
	c1.177-0.374,2.161-1.218,2.814-2.257C361.381,159.93,360.66,159.479,360.137,159.431z M357.588,130.985
	c-2.315,0.061-4.58,0.631-6.813,1.207c-1.799,0.463-1.255,2.473,0.539,2.01c1.983-0.511,3.965-1.018,6.023-1.072
	C358.995,133.087,359.56,130.933,357.588,130.985z M339.526,136.32c0.415-0.44,0.319-1.132-0.34-1.267
	c-1.213-0.247-2.511-0.334-3.613-0.941c-0.635-0.35-1.493-0.191-2.068,0.21c-0.436,0.304-0.823,1.017-0.191,1.364
	c1.312,0.723,2.722,0.889,4.164,1.184C338.191,137.016,339.005,136.874,339.526,136.32z M353.313,143.987
	c0.245,0.953,0.342,1.723-0.15,2.619c-0.35,0.637,0.305,1.106,0.871,1.167c0.703,0.075,1.537-0.23,1.891-0.874
	c0.664-1.209,0.621-2.39,0.287-3.689C355.877,141.912,352.979,142.685,353.313,143.987z M336.836,146.173
	c0.232,0.902,0.688,2.076-0.097,2.818c-0.509,0.482,0.438,0.641,0.726,0.629c0.684-0.026,1.426-0.256,1.929-0.732
	c1.022-0.969,0.651-2.285,0.341-3.49C339.527,144.596,336.627,145.361,336.836,146.173z M379.987,150.297
	c0.161-0.041,0.323-0.083,0.484-0.125c0.604-0.156,1.356-0.732,1.165-1.448c-0.194-0.725-1.129-0.829-1.733-0.673
	c-0.161,0.041-0.323,0.083-0.484,0.125c-0.604,0.156-1.356,0.732-1.165,1.448C378.448,150.349,379.383,150.453,379.987,150.297z
	 M562.712,409.57c-8.184-0.341-11.84-8.688-14.161-15.433c-1.658-4.822-2.918-9.766-4.512-14.608
	c-0.813-2.47-1.64-5.244-3.121-7.489c-0.004,0.643-0.01,1.285-0.012,1.928c-0.001,0.236-0.176,0.443-0.437,0.611
	c0.552,0.381,0.391,1.273-0.782,1.635c-26.487,8.147-58.898,15.068-85.624,4.446c-11.965-4.756-18.992-17.16-24.027-28.298
	c-3.704-8.194-6.682-16.812-10.231-25.133c-13.594,18.993-28.752,39.813-32.309,63.353c-3.931,26.021,6.417,51.297,9.768,76.782
	c0.151,1.152-2.76,1.828-2.898,0.777c-0.078-0.598-0.166-1.196-0.252-1.795c-0.51,0-1.021,0-1.53,0
	c4.074,6.139,5.562,13.662,5.655,20.953c0.002,0.165-0.086,0.314-0.227,0.449c-0.056,0.537-0.625,1.113-1.496,1.146
	c-20.406,0.792-40.94,0.653-61.36,0.667c-1.33,0.001-1.487-0.949-0.944-1.565c0.552-7.34,8.159-11.049,14.321-13.264
	c4.018-1.445,8.12-2.599,12.198-3.855c3.32-1.022,7.66-2.024,10.317-4.531c-0.687,0-1.372,0-2.058,0
	c-0.807,0.368-1.961,0.419-2.123-0.205c-7.215-27.768-10.65-56.631-8.45-85.303c2.232-29.102,9.801-57.288,21.864-83.839
	c-4.583-2.108-7.547-6.747-9.73-11.169c-1.49-3.016-2.748-6.121-3.91-9.264c-0.604-1.631-1.183-3.271-1.748-4.916
	c-0.858-2.502-1.694-5.012-2.565-7.511c-2.849-8.175-7.479-15.557-9.938-23.893c-0.346-1.171-0.647-2.346-0.929-3.523
	c-0.414-1.739-0.771-3.483-1.073-5.235c-0.438,0.689-0.868,1.383-1.295,2.078c-7.175,11.679-13.057,24.004-26.789,29.383
	c-0.844,0.33-1.694,0.642-2.542,0.959c-1.915,0.718-3.836,1.412-5.771,2.063c-8.873,2.986-17.943,5.259-27.161,6.668
	c7.066,12.207,8.624,29.129,8.498,43.253c-0.141,15.823-1.923,31.58-4.003,47.25c-1.587,11.956-3.997,24.132-4.058,36.226
	c-0.005,0.93-2.901,1.384-2.898,0.777c0.001-0.156,0.002-0.312,0.003-0.468c0.171-11.76,2.419-23.542,3.963-35.172
	c2.146-16.168,4.111-32.462,4.1-48.797c-0.011-13.848-0.861-29.245-7.704-41.649c-0.195-0.355-0.412-0.681-0.616-1.023
	c-3.737,0.5-7.499,0.85-11.279,1.051c-1.357,0.072-2.717,0.128-4.079,0.161c0.093,0.227,0.015,0.46-0.156,0.674
	c-0.321,0.4-0.988,0.725-1.603,0.767c-2.683,7.003-12.35,10.295-19.241,9.936c-0.611-0.032-0.859-0.232-0.875-0.49
	c-0.313,0.107-0.625,0.203-0.934,0.274c-0.535,0.124-1.085,0.22-1.641,0.285c-0.019,0.083-0.049,0.171-0.093,0.265
	c-22.192,46.987-69.278,90.056-124.024,87.935c-0.096,0.47-0.211,0.93-0.336,1.385c8.621,9.896,20.406,15.871,33.609,16.446
	c10.989,0.479,21.24-2.813,32.025-4.102c12.23-1.461,24.758-0.217,32.832,7.65c0.594-0.285,1.351-0.418,1.773-0.18
	c6.482,3.652,22.945,7.553,27.16-1.018c0.48-0.977,3.398-1.189,2.73,0.182c-4.818,9.896-14.206,17.471-24.963,12.768
	c-0.002,0.004-0.004,0.009-0.006,0.013c1.497,6.973,1.659,14.126,2.843,21.243c1.462,8.794,4.552,16.909,8.888,24.651
	c0.433,0.028,0.816,0.187,0.992,0.534c3.227,6.353,10.381,10.93,17.502,11.423c3.636,0.252,8.352-0.973,11.654,1.272
	c4.717,3.207,2.024,8.324-2.535,10.051c-16.732,6.334-36.777-8.272-45.559-21.617c-0.042-0.063-0.069-0.127-0.091-0.189
	c-4.631-4.554-10.074-8.774-16.122-11.1c-4.542,5.492-9.627,9.853-15.092,14.395c-2.76,2.294,7.258,6.219,8.681,6.894
	c3.261,1.546,8.507,3.339,10.371,6.705c1.215,2.194,0.478,4.826-2.051,5.58c-3.729,1.112-9.002-0.846-12.563-1.827
	c-5.754-1.586-11.54-3.417-16.975-5.908c-2.928-1.343-6.69-2.605-6.481-6.455c0.341-6.267,4.824-11.047,7.757-16.368
	c-2.397,1.096-4.808,2.224-7.292,3.204c-11.341,4.477-24.976,8.073-36.446,2.714c4.214,9.646,19.717,43.888,5.289,44.918
	c-5.653,0.404-7.501-5.465-8.887-9.861c-2.525-8.014-6.523-14.69-11.186-21.638c-3.581-5.336-6.326-12.16-10.833-16.698
	c-0.93-0.937-1.903-1.818-2.892-2.681c-5.086,1.519-11.264,4.8-9.346,11.115c1.396,4.592,5.291,8.046,5.779,13.02
	c0.568,5.786-3.356,9.914-8.647,5.861c-3.926-3.007-8.05-7.901-10.909-11.975c-1.637-2.331-2.99-4.916-2.941-7.848
	c0.148-9.152,5.025-15.269,12.348-20.24c0.168-0.114,0.359-0.188,0.56-0.232c-0.39-0.314-0.768-0.644-1.151-0.966
	c-9.359-4.646-10.784-17.194-10.053-26.834c0.544-7.167,3.036-14.027,3.297-21.211c0.281-7.728-1.637-14.843-4.402-21.991
	c-7.995-2.379-12.532,2.244-19.174,5.741c-3.671,1.933-7.346,3.195-11.53,3.094c-8.933-0.217-13.251-8.435-13.022-16.351
	c-0.451,0.028-0.883-0.081-1.14-0.396c-2.735-3.354-5.076-9.665-0.647-12.817c4.726-3.363,9.76,0.477,12.556,4.411
	c0.011,0.016,0.015,0.031,0.024,0.047c1.184-0.505,2.379-0.991,3.586-1.467c6.455-2.545,12.021-6.003,18.069-9.291
	c8.178-4.446,16.509-6.562,25.645-5.702c0.142-0.226,0.47-0.459,1.045-0.615c12.305-3.334,20.571,10.791,23.894,20.525
	c1.811,5.308,3.453,12.838,2.711,19.503c53.352,2.396,99.242-40.385,120.816-85.942c-2.929-0.309-5.595-1.699-6.68-4.809
	c-0.105-0.303,0.1-0.592,0.443-0.816c-1.431-1.137-2.562-2.787-3.209-4.982c-0.061-0.206-0.041-0.396,0.027-0.57
	c-0.708-0.738-1.15-1.722-1.215-2.991c-0.191-0.098-0.332-0.252-0.381-0.474c-1.271-5.71,3.252-11.097,8.338-13.13
	c0.604-0.241,1.252-0.141,1.654,0.111c1.622-7.667,9.731-13.521,16.433-7.771c0.081-0.032,0.165-0.063,0.259-0.088
	c13.245-3.508,27.583-4.013,40.371-9.141c0.271-0.108,0.545-0.207,0.813-0.319c3.748-1.569,7.03-3.48,9.978-5.686
	c6.781-5.073,11.764-11.729,16.384-19.534c8.967-15.149,19.653-35.82,39.949-35.152c-0.728-3.803-2.358-8.07-7.007-6.734
	c-2.908,0.836-5.667,2.094-8.613,2.811c-5.386,1.311-9.729-0.521-12.309-5.509c-7.178-13.876-7.372-31.945-7.68-47.289
	c-0.103,0.05-0.204,0.1-0.305,0.149c-1.061,0.637-2.034,1.361-2.865,2.206c-0.18,0.183-0.683,0.347-1.207,0.448
	c0.009,0.049,0.012,0.096,0.021,0.145c0.244,1.258-2.661,1.994-2.898,0.775c-2.132-10.954,13.413-20.952,21.418-25.244
	c13.607-7.296,27.551-3.504,37.15,8.301c0.264,0.324,0.185,0.65-0.07,0.922c6.389-0.811,11.191,3.359,13.539,9.567
	c3.514,9.296-1.213,17.339-4.609,25.829c-0.147,0.369-0.868,0.627-1.551,0.734c0.877,1.516,1.42,3.213,1.108,4.874
	c-0.586,3.13-3.708,4.447-6.631,4.954c0.008,0.043,0.02,0.081,0.021,0.128c0.107,6.009,2.442,11.689,4.021,17.418
	c0.054,0.078,0.092,0.165,0.1,0.269c12.866,0.367,24.109,5.891,36.453,8.846c13.646,3.268,28.446,5.031,40.979,11.671
	c20.049,10.621,24.559,32.388,35.152,50.331c0.195,0.332,0.392,0.664,0.592,0.992c1.515,2.491,3.154,4.904,4.983,7.193
	c0.151,0.188,0.091,0.392-0.092,0.579c0.046,0.067,0.054,0.15,0.013,0.252c-0.382,0.943-0.843,1.8-1.341,2.612
	c0.21,0.016,0.399,0.067,0.537,0.174c3.121,2.405,6.876,4.962,8.583,8.649c1.812,3.912,0.963,7.606-0.86,11.348
	c-0.017,0.035-0.044,0.067-0.067,0.101c-0.309,0.713-0.695,1.377-1.208,1.93c-1.386,1.492-3.132,2.195-5.126,2.492
	c-0.01,0.002-0.026,0.002-0.038,0.004c-0.472,1.008-1.113,1.926-2.005,2.662c-1.654,1.366-3.808,1.742-5.881,1.489
	c-1.433,2.158-3.625,3.681-6.486,2.787c-2.965-0.926-4.816-3.976-5.606-6.979c-2.935,0.693-8.521,1.645-9.473-2.393
	c-0.929-3.943,1.467-8.294,3.594-11.438c0.039-0.058,0.095-0.11,0.157-0.161c-1.698-0.138-2.312-1.195-3.643-3.091
	c-3.137-4.464-6.061-9.083-8.889-13.747c-2.91-4.801-5.962-9.659-8.141-14.85c-2.674-6.37-6.146-12.229-12.635-15.249
	c-2.413-1.123-4.916-2.095-7.463-2.964c-4.959-1.693-10.097-2.976-15.142-4.064c-1.642-0.354-3.304-0.703-4.961-1.087
	c0.077,0.207,0.15,0.415,0.226,0.622c7.18,19.629,9.795,41.022,26.28,55.663c0.122,0.108,0.106,0.24,0.004,0.377
	c0.28,0.044,0.517,0.159,0.643,0.376c7.167,12.3,9.463,26.861,13.787,40.264c3.085,9.562,6.756,18.988,11.661,27.778
	c2.902,5.199,4.93,9.386,10.811,11.245c10.524,3.329,22.439,2.704,33.296,1.831c5.052-0.406,10.1-0.944,15.105-1.74
	c1.65-0.263,3.302-0.53,4.934-0.894c0.641-0.143,2.175-0.893,1.733-0.315c0.263-0.345,0.813-0.535,1.343-0.565
	c0.818-0.299,1.874-0.344,1.944,0.115c0.186,1.218,0.332,2.437,0.46,3.654c5.987-3.887,12.918-5.663,20.067-5.77
	c0.322-0.005,0.521,0.032,0.639,0.094c0.846-0.498,2.291-0.415,2.332,0.645c0.789,20.396,0.651,40.918,0.666,61.328
	C565.604,408.127,563.779,409.615,562.712,409.57z M95.367,332.555c0.293,0.074,0.355,0.2,0.271,0.347
	c0.315,0.026,0.555,0.131,0.612,0.346c2.252,8.374-6.455,57.245,11.576,51.938c4.945-1.456,7.679-4.926,8.994-9.193
	c-0.066-0.229,0.012-0.453,0.19-0.648c1.763-6.531,0.399-14.735-1.458-20.521C113.078,347.11,105.886,330.931,95.367,332.555z
	 M35.276,354.364c2.402-1.761,4.96-3.191,7.617-4.445c-1.352-1.893-5.828-7.101-8.38-3.919
	C32.503,348.508,33.648,351.853,35.276,354.364z M85.088,376.149c0.35-0.131,0.736-0.185,1.079-0.189
	c2.848-0.038,5.266-1.146,7.85-2.115c-2.003-13.212,1.243-32.727-0.665-39.82c-0.016-0.058-0.013-0.114,0-0.171
	c-12.357-1.813-20.802,2.849-31.104,8.765c-7.904,4.539-17.094,6.508-24.528,11.847c0.093,0.077,0.145,0.179,0.125,0.315
	c-0.726,5.153,0.147,11.297,4.525,14.764c6.392,5.062,13.141,2.027,19.234-1.865c6.2-3.96,11.907-6.132,19.054-4.027
	c0.298-0.011,0.526,0.042,0.612,0.184c0.064,0.021,0.127,0.036,0.191,0.058c0.333,0.111,0.282,0.308,0.04,0.515
	C82.977,368.229,84.289,372.145,85.088,376.149z M102.087,444.666c-3.115-2.543-6.394-4.884-9.571-7.357
	c-0.082,0.088-0.179,0.177-0.311,0.267c-6.365,4.323-13.648,12.262-11.025,20.892c0.97,3.19,3.15,5.757,5.361,8.184
	c1.787,1.962,3.614,3.884,5.427,5.822c1.107,1.185,5.61,5.316,5.644,0.687c0.049-6.845-7.751-12.358-6.097-19.244
	C92.766,448.708,97.352,446.223,102.087,444.666z M200.141,442.487c-0.828-0.238-1.661-0.453-2.508-0.613
	c-6.475-1.224-12.107,0.446-17.644,2.784c-2.507,5.336-9.991,12.509-8.507,18.592c0.783,3.205,6.65,4.654,9.364,5.685
	c5.079,1.928,10.28,3.647,15.575,4.886c1.42,0.332,10.906,2.651,7.169-1.673c-2.841-3.285-7.608-4.879-11.422-6.704
	c-2.411-1.154-6.308-2.464-7.765-4.895c-1.3-2.17,0.377-3.578,2.047-4.851C191.559,451.81,196.071,447.438,200.141,442.487z
	 M220.752,398.017c0.393,0.518,0.765,1.064,1.126,1.627c0.511-0.015,0.974,0.138,1.13,0.543c0.585,1.515,1.059,3.043,1.461,4.579
	c0.479-0.144,0.977-0.177,1.291-0.007c7.546,4.086,13.72,0.616,18.053-5.044C237.045,402.396,227.188,400.673,220.752,398.017z
	 M121.621,381.011c-11.186,7.797-23.829,13.25-37.364,15.134c-0.688,3.361-1.387,6.718-1.647,10.153
	c-0.668,8.792-0.081,20.841,7.475,26.399c0.471-0.069,0.932-0.021,1.207,0.221c0.56,0.489,1.133,0.963,1.709,1.433
	c0.504,0.214,1.021,0.412,1.571,0.579c0.29,0.089,0.126,0.285-0.229,0.488c4.415,3.45,9.134,6.534,13.212,10.388
	c4.534,4.285,6.612,9.25,9.957,14.333c3.558,5.408,7.446,10.683,10.44,16.437c1.445,2.778,2.484,5.631,3.425,8.614
	c0.867,2.751,1.65,6.708,3.813,8.774c5.076,4.848,5.712-3.43,5.353-6.514c-0.51-4.371-1.614-8.659-2.922-12.855
	c-2.445-7.854-5.498-15.482-8.664-23.068c-0.156-0.373,0.089-0.718,0.49-0.963c-0.061-0.039-0.123-0.074-0.184-0.113
	c-1.236-0.802,1.418-2.04,2.285-1.477c14.939,9.696,31.277,0.932,45.987-5.28c0.315-0.476,1.042-0.72,1.676-0.698
	c1.362-0.559,2.71-1.092,4.038-1.575c6.659-2.423,13.166-2.156,19.251-0.192c0.214,0.031,0.409,0.094,0.567,0.185
	c8.178,2.793,15.57,8.633,21.51,15.122c0.263,0.287,0.159,0.592-0.125,0.848c4.582,5.6,10.39,10.235,16.774,13.597
	c5.821,3.065,18.751,8.855,24.343,2.145c6.092-7.31-11.861-6.124-14.711-6.874c-6.345-1.669-11.963-5.115-15.322-10.75
	c-0.403,0.008-0.759-0.103-0.919-0.381c-4.653-8.076-8.335-16.772-9.657-26.062c-1.107-7.782-1.32-15.669-3.303-23.244
	c-7.441-19.636-30.084-18.341-47.564-14.283C155.23,395.907,135.943,393.815,121.621,381.011z M118.712,376.099l-2.5,4.666
	c0,0-2.333,1.834-2.833,2.167s-3,1.833-5.167,2.833l-3.167,0.834l-0.906,0.194c-0.679-0.374-1.439-0.799-2.228-1.249
	c-1.427-0.816-2.915-1.7-4.032-2.445c-3-2-3.167-8-3.167-8l-8.383,1.851l-1.95,0.649l-0.334,17.333l9-1.5l11.368-4.491l0.299,0.324
	l4.5-2.166l13-7.834L118.712,376.099z M501.511,259.554c-4.688,5.671-12.485,7.626-19.87,8.523c-1.73,2.572-3.552,5.795-3.661,8.965
	c-0.144,4.137,2.934,4.981,6.521,4.157c-0.069-0.381-0.125-0.758-0.16-1.124c-0.099-1.049,2.814-1.666,2.898-0.775
	c0.24,2.549,1.193,5.262,3.064,7.085c0.52,0.507,1.814,1.789,2.668,1.504c1.342-0.449,2.002-2.858,2.373-4.007
	c0.301-0.931,3.194-1.33,2.891-0.389c-0.131,0.404-0.285,0.811-0.462,1.213c0.021,0.004,0.044,0.001,0.065,0.005
	c3.523,0.69,4.646-3.013,5-5.851c0.127-1.021,3.052-1.546,2.902-0.346c-0.093,0.743-0.24,1.485-0.446,2.207
	c1.58-0.292,2.471-1.472,3.05-2.879c0.015-0.072,0.042-0.15,0.083-0.235c0.022-0.046,0.036-0.09,0.059-0.136
	c0.378-1.03,0.618-2.143,0.857-3.094c0.042-0.166,0.169-0.316,0.343-0.447C510.892,267.802,506.75,263.632,501.511,259.554z
	 M379.165,112.538l0.124,0.149c0,0,0.897-0.229,2.195-0.294C380.749,112.327,379.976,112.372,379.165,112.538z M367.781,181.894
	c0.024,0.188-0.127,0.363-0.369,0.516c0.373,1.761,1.19,5.075,3.524,4.78c1.94-0.245,3.704-1.611,5.13-2.871
	c2.77-2.444,5.4-5.428,7.07-8.757c-1.622-5.886-3.905-11.635-4.016-17.81c-0.002-0.132,0.041-0.256,0.119-0.37
	c-0.683-0.427,0.069-1.58,1.255-1.668c2.298-0.172,5.187-0.738,5.287-3.559c0.08-2.233-1.333-4.424-2.781-6.007
	c-0.323-0.354-0.691-0.73-1.091-1.1c-0.648-0.4-1.354-0.85-2.121-1.361c-1.226-0.817-2.189-0.814-2.947-0.384
	c-0.102,0.139-0.197,0.292-0.271,0.451c-0.526,1.119-0.602,2.44-0.569,3.678c0.167,0.202,0.332,0.403,0.503,0.604
	c0.91,1.071-1.854,2.194-2.66,1.244c-0.012-0.014-0.023-0.028-0.035-0.041c-0.39-0.041-0.68-0.214-0.695-0.552
	c-0.004-0.096-0.006-0.191-0.009-0.287c-3.528-4.255-7.589-10.035-6.766-15.749c0.204-1.418,1.149-4.575,0.516-6.505
	c-0.369-0.456-0.767-0.92-1.138-1.368c-0.826-0.412-1.75-0.72-2.555-1.172c-0.985-0.555-1.658-1.107-2.191-1.831
	c-0.452,0.089-0.857,0.075-1.035-0.154c-0.42-0.542-0.918-0.992-1.462-1.381c-2.716-0.585-6.319-1.117-10.685-1.554
	c-0.273-0.027-0.552-0.044-0.832-0.057c-1.836,0.229-3.563,0.558-4.965,0.844c-2.596,0.529-5.617,1.15-8.486,2.119
	c-0.622,0.251-1.23,0.507-1.82,0.765c0.07,0.035,0.114,0.082,0.115,0.143c0.164,8.104,0.61,16.234,1.66,24.275
	c1.036,7.943,2.127,17.221,6.473,24.167c4.975,7.95,11.449,2.797,18.437,1.487C365.039,171.181,366.989,175.895,367.781,181.894z
	 M243.345,263.189c0.907,2.549,2.787,2.484,4.587,0.749c1.72-1.658,2.779-3.758,3.305-6.057c-0.176,0.017-0.348,0.021-0.523,0.04
	c-1.914,0.196,0.383-1.23,1.215-1.316c0.24-0.024,0.482-0.043,0.723-0.065c0.322-0.076,0.651-0.106,0.928-0.085
	c0.94-0.077,1.881-0.13,2.824-0.161c-0.088-1.12-0.127-2.238-0.121-3.346c-0.364,0.024-0.684-0.033-0.844-0.218
	c-1.628-1.865-4.584-4.692-7.333-3.003c-1.649,1.014-3,2.621-3.759,4.409C243.236,256.755,242.352,260.397,243.345,263.189z
	 M238.972,274.843c1.794-0.011,3.716-0.42,5.195-1.488c1.064-0.769,3.519-3.218,2.173-4.653c-1.802-1.922-5.207-0.931-7.336-0.21
	c-0.812,0.274-1.737,0.229-2.43-0.282c-1.154-0.854-1.491-3.862-0.294-4.813c0.796-0.631,3.685-0.472,2.354,0.586
	c-0.467,0.37-0.17,2.882,0.794,2.616c0.811-0.224,1.619-0.385,2.435-0.516c-0.647-0.444-1.154-1.126-1.415-2.116
	c-0.408-1.549-0.49-3.12-0.315-4.646c-0.072,0.037-0.145,0.074-0.231,0.109c-3.772,1.509-6.944,5.273-6.835,9.392
	c0.442,0.061,0.754,0.278,0.678,0.706C233.138,272.936,235.74,274.863,238.972,274.843z M244.32,279.103
	c2.28-1.064,5.231-3.799,2.473-5.361c-0.449,0.385-0.894,0.701-1.279,0.914c-2.366,1.306-6.57,2.192-9.896,1.618
	C237.342,279.394,240.617,280.831,244.32,279.103z M247.843,279.576c-0.579,0.444-1.203,0.838-1.85,1.14
	c-2.589,1.208-5.237,1.547-7.56,0.993c1.493,2.009,4.108,2.812,6.696,2.319C247.631,283.552,249.479,281.737,247.843,279.576z
	 M264.984,274.652c-1.16-0.902-2.178-1.925-3.078-3.034c-0.658-0.811-1.253-1.666-1.783-2.564
	c-2.003-3.398-3.123-7.356-3.582-11.367c-0.816-0.018-1.64-0.01-2.471,0.019c-0.89,3.562-3.261,7.1-6.769,8.47
	c-0.093,0.036-0.189,0.068-0.284,0.102c0.521,0.181,1.02,0.417,1.468,0.738c1.722,1.232,1.24,3.124,0.11,4.753
	c2.874,1.466,2.607,3.937,1.046,6.014c0.219,0.03,0.407,0.103,0.531,0.232c2.129,2.235,1.187,4.328-0.677,5.749
	c5.552,0.045,13.089-2.79,14.835-8.429C264.417,275.057,264.665,274.825,264.984,274.652z M283.572,272.136
	c-0.032-0.051-0.066-0.097-0.1-0.146c-5.644-8.765-14.12-13.212-23.921-14.127c0.806,5.956,3.179,11.75,8.008,15.378
	c0.278-0.096,0.524-0.16,0.665-0.161c4.533-0.031,9.063-0.286,13.57-0.759C282.387,272.258,282.98,272.206,283.572,272.136z
	 M383.633,295.737c0.638,0.189,0.738,0.544,0.556,0.899c21.833,1.33,48.052-4.021,58.007-25.855
	c0.015-0.032,0.039-0.062,0.063-0.092c-0.133-0.024-0.244-0.07-0.325-0.143c-17.035-15.129-19.378-37.446-27.093-57.638
	c-0.06-0.156,0.031-0.319,0.206-0.472c-4.136-1.121-8.142-2.632-11.608-5.204c-0.697-0.518,1.933-1.663,2.703-1.092
	c6.597,4.895,15.188,5.778,22.965,7.62c5.727,1.356,11.641,3.068,17.051,5.402c4.858,2.095,8.596,4.991,11.504,9.456
	c2.579,3.96,4.029,8.56,6.3,12.699c2.961,5.396,6.157,10.671,9.491,15.845c2.04,3.164,4.002,6.758,6.601,9.514
	c0.059,0.062,0.102,0.117,0.135,0.167c0.279-0.033,0.56-0.063,0.841-0.089c1.62-0.155,3.246-0.319,4.849-0.615
	c1.657-0.306,3.28-0.716,4.827-1.261c2.104-0.74,4.057-1.739,5.759-3.059c2.079-1.609,3.779-3.701,4.884-6.431
	c0.037-0.092,0.106-0.176,0.19-0.255c-14.663-18.428-17.244-45.131-39.231-57.62c-12.1-6.871-26.575-8.654-39.945-11.772
	c-12.387-2.89-24.002-8.646-36.843-9.169c-4.095,7.088-18.126,20.46-21.052,6.376c-0.035-0.166-0.02-0.323,0.033-0.469
	c-0.07,0.006-0.141,0.011-0.211,0.007c-6.854-0.406-12.518,1.993-17.379,5.938c-5.675,4.605-10.254,11.32-14.339,18.173
	c-3.793,6.36-7.163,12.834-10.593,17.834c-6.508,9.489-15.916,16.14-26.875,19.608c-11.689,3.7-23.986,4.765-35.863,7.71
	c-0.041,1.489,0,3.012,0.137,4.539c0.106,0.004,0.213,0.001,0.319,0.006c12.733,0.554,21.045,6.57,26.419,15.173
	c0.064,0.103,0.133,0.2,0.196,0.304c4.068-0.57,8.11-1.328,12.106-2.31c2.475-0.607,5.02-1.236,7.573-1.913
	c6.134-1.627,12.326-3.571,17.768-6.443c3.079-1.625,5.694-3.642,8.006-5.918c3.09-3.042,5.632-6.554,7.976-10.253
	c3.105-4.902,5.87-10.126,9.12-14.999c0.179-0.269,0.656-0.455,1.173-0.564c-0.902-6.119-1.184-12.313-1.207-18.564
	c-0.005-1.252,2.924-1.725,2.93-0.24c0.037,9.722,0.574,19.571,3.534,28.904c2.423,7.644,6.585,14.445,9.257,21.961
	c2.304,6.479,4.23,13.119,6.969,19.436C373.944,286.475,377.237,293.834,383.633,295.737z M389.458,466.778
	c-0.101-0.143-0.087-0.29,0.003-0.432c-5.197,0-10.394,0-15.59,0c-4.367,4.49-11.936,5.758-17.643,7.486
	c-7.029,2.129-18.313,4.857-19.112,13.647c19.371-0.006,38.836,0.091,58.194-0.618C395.074,479.856,393.529,472.568,389.458,466.778
	z M538.008,374.743c0.029-8.23,0.27-16.407-0.814-24.574c-1.456,0.469-3.293,0.605-4.304,0.789
	c-5.085,0.924-10.228,1.574-15.374,2.038c-11.5,1.036-24.078,1.96-35.375-1.014c-3.652-0.961-8.083-2.438-10.185-5.855
	c-5.331-8.667-9.81-17.818-13.246-27.402c-5.324-14.848-7.591-31.58-15.149-45.558c-6.131,10.957-16.73,17.585-28.618,21.201
	c-6.505,1.979-13.396,3.05-20.152,3.44c-4.132,0.238-8.216,0.226-12.128,0c-11.721,26.113-19.371,54.056-21.348,82.668
	c-1.977,28.628,1.244,57.153,8.451,84.888c0.006,0.023,0.002,0.045,0.005,0.067c0.405-0.157,0.796-0.272,0.985-0.272
	c7.727,0,15.453,0,23.18,0c-3.744-24.402-13.717-49.393-9.344-74.242c4.338-24.652,19.635-45.781,33.866-65.714
	c0.076-0.106,0.194-0.202,0.339-0.286c-1.998-4.497-4.197-8.889-6.818-13.054c-0.729-1.156,2.068-2.164,2.672-1.205
	c7.073,11.237,11.025,24.089,16.218,36.226c5.063,11.836,11.65,26.125,24.184,31.68c15.668,6.943,35.017,6.028,51.576,3.542
	c10.658-1.6,21.106-4.132,31.411-7.253C538.02,374.82,538.008,374.784,538.008,374.743z M560.474,346.872
	c-0.001-0.009-0.003-0.016-0.003-0.023c0-0.009,0-0.018,0.001-0.026c0-0.005,0.002-0.011,0.003-0.016
	c-0.415,0.232-0.914,0.418-1.24,0.423c-6.417,0.095-12.487,1.688-17.766,5.44c-0.18,0.128-0.563,0.234-0.98,0.3
	c0.461,5.189,0.486,10.387,0.452,15.602c0.351-0.02,0.665,0.04,0.86,0.212c5.063,4.454,6.174,13.542,8.045,19.63
	c1.85,6.018,4.508,16.466,11.291,18.944C561.127,387.226,561.25,366.987,560.474,346.872z M75.547,343.993c0,0.95,0,1.899,0,2.85
	c0,0.474,2.898,0.056,2.898-0.777c0-0.949,0-1.898,0-2.848C78.445,342.743,75.547,343.161,75.547,343.993z M46.206,360.507
	c-0.476,0-0.95,0-1.426,0c-0.673,0-1.527,0.199-1.903,0.824c-0.352,0.584,0.295,0.98,0.819,0.98c0.476,0,0.95,0,1.426,0
	c0.673,0,1.527-0.199,1.903-0.824C47.377,360.903,46.73,360.507,46.206,360.507z"></path>
</svg>